<?xml version="1.0" encoding="UTF-8"?>
<!-- Generated by jsxcad -->
<!DOCTYPE svg PUBLIC "-//W3C//DTD SVG 1.1 Tiny//EN" "http://www.w3.org/Graphics/SVG/1.1/DTD/svg11-tiny.dtd">
<svg viewBox="-250 -250 500 500" width="500" height="500" xmlns="http://www.w3.org/2000/svg"><path d="M-53.86229338248622,211.30270681611285L-215.80275445342298,1.926277148452657L-85.90887363354483,181.5324724876233z" style="fill:rgb(35,45,161)"/><path d="M195.77390708701068,31.281008619648034L131.1333750546008,-136.90653089364667L203.5382063480724,73.81178735184254z" style="fill:rgb(247,158,158)"/><path d="M-190.407178422508,-120.81857499714957L-182.95863239522285,29.617163773449963L-150.69233833651828,-159.21576092578735zM-217.04719579197155,-78.49555688241483L-215.80275445342298,1.926277148452657L-190.407178422508,-120.81857499714957zM-150.69233833651828,-159.21576092578735L-129.81161893810975,41.517171823281096L-101.95576164424517,-190.80174412573595z" style="fill:rgb(83,212,212)"/><path d="M203.5382063480724,73.81178735184254L112.75775813548643,-87.24140370062925L191.00139357298738,121.40421076244768z" style="fill:rgb(240,125,187)"/><path d="M-101.95576164424517,-190.80174412573595L-62.626115173021134,33.807652718033324L-48.23180944198057,-213.25844270220253z" style="fill:rgb(83,212,212)"/><path d="M-129.81161893810975,41.517171823281096L-53.86229338248622,211.30270681611285L-6.343151238185777,226.9449593536657z" style="fill:rgb(67,34,190)"/><path d="M131.1333750546008,-136.90653089364667L195.77390708701068,31.281008619648034L125.09202265643721,-178.56375401768574z" style="fill:rgb(247,158,158)"/><path d="M-215.80275445342298,1.926277148452657L-217.04719579197155,-78.49555688241483L-226.63185435343993,-35.98685304298603zM-48.23180944198057,-213.25844270220253L8.06118245789665,6.315176966761285L6.283892216363663,-224.6175007649699zM6.283892216363663,-224.6175007649699L69.94676257489728,-36.622444666341245L56.95357027860038,-223.2155980631448z" style="fill:rgb(83,212,212)"/><path d="M191.00139357298738,121.40421076244768L69.94676257489728,-36.622444666341245L158.07732890271114,167.23182771033527z" style="fill:rgb(219,93,209)"/><path d="M-215.80275445342298,1.926277148452657L-53.86229338248622,211.30270681611285L-182.95863239522285,29.617163773449963z" style="fill:rgb(35,45,161)"/><path d="M-62.626115173021134,33.807652718033324L-6.343151238185777,226.9449593536657L50.764695724813244,224.67141152076024z" style="fill:rgb(106,33,210)"/><path d="M-190.407178422508,-120.81857499714957L-215.80275445342298,1.926277148452657L-182.95863239522285,29.617163773449963z" style="fill:rgb(83,212,212)"/><path d="M69.94676257489728,-36.622444666341245L108.7537112841547,203.73875062228564L158.07732890271114,167.23182771033527z" style="fill:rgb(187,64,221)"/><path d="M56.95357027860038,-223.2155980631448L112.75775813548643,-87.24140370062925L98.49432575515144,-207.90304144157142z" style="fill:rgb(83,212,212)"/><path d="M8.06118245789665,6.315176966761285L50.764695724813244,224.67141152076024L108.7537112841547,203.73875062228564z" style="fill:rgb(148,44,221)"/><path d="M112.75775813548643,-87.24140370062925L203.5382063480724,73.81178735184254L131.1333750546008,-136.90653089364667z" style="fill:rgb(240,125,187)"/><path d="M98.49432575515144,-207.90304144157142L131.1333750546008,-136.90653089364667L125.09202265643721,-178.56375401768574z" style="fill:rgb(83,212,212)"/><path d="M-53.86229338248622,211.30270681611285L-129.81161893810975,41.517171823281096L-182.95863239522285,29.617163773449963z" style="fill:rgb(67,34,190)"/><path d="M-150.69233833651828,-159.21576092578735L-182.95863239522285,29.617163773449963L-129.81161893810975,41.517171823281096zM-101.95576164424517,-190.80174412573595L-129.81161893810975,41.517171823281096L-62.626115173021134,33.807652718033324zM98.49432575515144,-207.90304144157142L112.75775813548643,-87.24140370062925L131.1333750546008,-136.90653089364667z" style="fill:rgb(83,212,212)"/><path d="M69.94676257489728,-36.622444666341245L191.00139357298738,121.40421076244768L112.75775813548643,-87.24140370062925z" style="fill:rgb(219,93,209)"/><path d="M-6.343151238185777,226.9449593536657L-62.626115173021134,33.807652718033324L-129.81161893810975,41.517171823281096z" style="fill:rgb(106,33,210)"/><path d="M-48.23180944198057,-213.25844270220253L-62.626115173021134,33.807652718033324L8.06118245789665,6.315176966761285zM56.95357027860038,-223.2155980631448L69.94676257489728,-36.622444666341245L112.75775813548643,-87.24140370062925zM6.283892216363663,-224.6175007649699L8.06118245789665,6.315176966761285L69.94676257489728,-36.622444666341245z" style="fill:rgb(83,212,212)"/><path d="M50.764695724813244,224.67141152076024L8.06118245789665,6.315176966761285L-62.626115173021134,33.807652718033324z" style="fill:rgb(148,44,221)"/><path d="M108.7537112841547,203.73875062228564L69.94676257489728,-36.622444666341245L8.06118245789665,6.315176966761285z" style="fill:rgb(187,64,221)"/></svg>
