solid JSxCAD
facet normal -1.6762430400104356e-16 0 0.9999999999999999
outer loop
vertex -5.40581 2.6033 10
vertex 3.74094 4.69099 10
vertex -1.33513 5.84957 10
endloop
endfacet
facet normal 2.9839986218237507e-16 0 1
outer loop
vertex -5.40581 2.6033 10
vertex 6 0 10
vertex 3.74094 4.69099 10
endloop
endfacet
facet normal 0 0 0.9999999999999999
outer loop
vertex -5.40581 -2.6033 10
vertex 6 0 10
vertex -5.40581 2.6033 10
endloop
endfacet
facet normal 2.9839986218237507e-16 0 1
outer loop
vertex -5.40581 -2.6033 10
vertex 3.74094 -4.69099 10
vertex 6 0 10
endloop
endfacet
facet normal 0 0 0.9999999999999999
outer loop
vertex 3.74094 -4.69099 10
vertex -5.40581 -2.6033 10
vertex -1.33513 -5.84957 10
endloop
endfacet
facet normal 0 0 -1
outer loop
vertex 3.74094 -4.69099 0
vertex 3.74094 4.69099 0
vertex 6 0 0
endloop
endfacet
facet normal 0 0 -1
outer loop
vertex 3.74094 -4.69099 0
vertex -1.33513 5.84957 0
vertex 3.74094 4.69099 0
endloop
endfacet
facet normal 0 0 -1
outer loop
vertex -1.33513 -5.84957 0
vertex -1.33513 5.84957 0
vertex 3.74094 -4.69099 0
endloop
endfacet
facet normal 0 0 -0.9999999999999999
outer loop
vertex -1.33513 -5.84957 0
vertex -5.40581 2.6033 0
vertex -1.33513 5.84957 0
endloop
endfacet
facet normal 0 0 -1
outer loop
vertex -5.40581 2.6033 0
vertex -1.33513 -5.84957 0
vertex -5.40581 -2.6033 0
endloop
endfacet
facet normal 0.2225209607829719 -0.9749279060588137 0
outer loop
vertex -1.33513 -5.84957 0
vertex 3.74094 -4.69099 10
vertex -1.33513 -5.84957 10
endloop
endfacet
facet normal 0.2225209607829719 -0.9749279060588139 0
outer loop
vertex 3.74094 -4.69099 10
vertex -1.33513 -5.84957 0
vertex 3.74094 -4.69099 0
endloop
endfacet
facet normal -0.6234910962446992 -0.7818304502279144 0
outer loop
vertex -5.40581 -2.6033 0
vertex -1.33513 -5.84957 10
vertex -5.40581 -2.6033 10
endloop
endfacet
facet normal -0.623491096244699 -0.7818304502279145 0
outer loop
vertex -1.33513 -5.84957 10
vertex -5.40581 -2.6033 0
vertex -1.33513 -5.84957 0
endloop
endfacet
facet normal -0.9999999999999999 0 0
outer loop
vertex -5.40581 2.6033 0
vertex -5.40581 -2.6033 10
vertex -5.40581 2.6033 10
endloop
endfacet
facet normal -0.9999999999999999 0 0
outer loop
vertex -5.40581 -2.6033 10
vertex -5.40581 2.6033 0
vertex -5.40581 -2.6033 0
endloop
endfacet
facet normal -0.623491096244699 0.7818304502279145 0
outer loop
vertex -1.33513 5.84957 0
vertex -5.40581 2.6033 10
vertex -1.33513 5.84957 10
endloop
endfacet
facet normal -0.6234910962446992 0.7818304502279144 0
outer loop
vertex -5.40581 2.6033 10
vertex -1.33513 5.84957 0
vertex -5.40581 2.6033 0
endloop
endfacet
facet normal 0.2225209607829719 0.9749279060588139 0
outer loop
vertex 3.74094 4.69099 0
vertex -1.33513 5.84957 10
vertex 3.74094 4.69099 10
endloop
endfacet
facet normal 0.2225209607829719 0.9749279060588137 0
outer loop
vertex -1.33513 5.84957 10
vertex 3.74094 4.69099 0
vertex -1.33513 5.84957 0
endloop
endfacet
facet normal 0.9009689971223203 0.4338834707895664 0
outer loop
vertex 6 0 0
vertex 3.74094 4.69099 10
vertex 6 0 10
endloop
endfacet
facet normal 0.9009689971223203 0.4338834707895664 0
outer loop
vertex 3.74094 4.69099 10
vertex 6 0 0
vertex 3.74094 4.69099 0
endloop
endfacet
facet normal 0.9009689971223203 -0.4338834707895664 0
outer loop
vertex 3.74094 -4.69099 0
vertex 6 0 10
vertex 3.74094 -4.69099 10
endloop
endfacet
facet normal 0.9009689971223203 -0.4338834707895664 0
outer loop
vertex 6 0 10
vertex 3.74094 -4.69099 0
vertex 6 0 0
endloop
endfacet
endsolid JSxCAD
