<?xml version="1.0" encoding="UTF-8"?>
<!-- Generated by jsxcad -->
<!DOCTYPE svg PUBLIC "-//W3C//DTD SVG 1.1 Tiny//EN" "http://www.w3.org/Graphics/SVG/1.1/DTD/svg11-tiny.dtd">
<svg viewBox="-250 -250 500 500" width="500" height="500" xmlns="http://www.w3.org/2000/svg"><path d="M-209.0615202336824,8.55594533896239L-118.78197337978894,-192.09141299486492L-218.51471238711036,-92.72975247361677z" style="fill:rgb(83,212,212)"/><path d="M196.6691790100691,20.665723441995045L99.60708419097122,-74.53286946441207L182.81478624942872,138.2415992478787z" style="fill:rgb(244,137,177)"/><path d="M-118.78197337978894,-192.09141299486492L-64.18936610428729,26.763627109563817L21.79226396109007,-236.24329043547135z" style="fill:rgb(83,212,212)"/><path d="M-64.18936610428729,26.763627109563817L-75.68980282604961,193.45275725921786L51.78703010834788,222.83213996065058z" style="fill:rgb(75,32,195)"/><path d="M99.60708419097122,-74.53286946441207L51.78703010834788,222.83213996065058L182.81478624942872,138.2415992478787z" style="fill:rgb(179,59,222)"/><path d="M99.60708419097122,-74.53286946441207L196.6691790100691,20.665723441995045L125.12015309196667,-194.55172306225722z" style="fill:rgb(244,137,177)"/><path d="M21.79226396109007,-236.24329043547135L99.60708419097122,-74.53286946441207L125.12015309196667,-194.55172306225722z" style="fill:rgb(83,212,212)"/><path d="M-75.68980282604961,193.45275725921786L-64.18936610428729,26.763627109563817L-209.0615202336824,8.55594533896239z" style="fill:rgb(75,32,195)"/><path d="M-118.78197337978894,-192.09141299486492L-209.0615202336824,8.55594533896239L-64.18936610428729,26.763627109563817zM21.79226396109007,-236.24329043547135L-64.18936610428729,26.763627109563817L99.60708419097122,-74.53286946441207z" style="fill:rgb(83,212,212)"/><path d="M51.78703010834788,222.83213996065058L99.60708419097122,-74.53286946441207L-64.18936610428729,26.763627109563817z" style="fill:rgb(179,59,222)"/></svg>
