<?xml version="1.0" encoding="UTF-8"?>
<!-- Generated by jsxcad -->
<!DOCTYPE svg PUBLIC "-//W3C//DTD SVG 1.1 Tiny//EN" "http://www.w3.org/Graphics/SVG/1.1/DTD/svg11-tiny.dtd">
<svg viewBox="-250 -250 500 500" width="500" height="500" xmlns="http://www.w3.org/2000/svg"><path d="M-31.002339487849028,-106.43960990526409L-29.448595073380147,-61.66006537921492L-27.83506188757146,-108.4527787084186zM-27.83506188757146,-108.4527787084186L-25.74116417888766,-62.91543160252251L-24.456476377169807,-110.17350079200818zM-33.880030635253966,-104.18321758092934L-33.13613964723382,-60.2925934937535L-31.002339487849028,-106.43960990526409zM-24.456476377169807,-110.17350079200818L-22.01998992705095,-64.05638291728074L-20.9496885720127,-111.55942206282059zM-20.9496885720127,-111.55942206282059L-22.01998992705095,-64.05638291728074L-17.400917116728383,-112.57594085987168zM-17.400917116728383,-112.57594085987168L-14.561233929256959,-65.98641374061164L-13.897710405557921,-113.19699255161939zM-13.897710405557921,-113.19699255161939L-14.561233929256959,-65.98641374061164L-10.527123200030875,-113.40564760116666zM-10.527123200030875,-113.40564760116666L-10.83616589951257,-66.77155707377558L-7.3738195279306495,-113.19467562303377zM-7.3738195279306495,-113.19467562303377L-7.122381353936958,-67.43440109180384L-4.5181607673522395,-112.56687621519582zM-99.37648405077348,-46.45446971156658L-93.77746138720343,-14.11743008862396L-33.880030635253966,-104.18321758092934zM-33.880030635253966,-104.18321758092934L-47.56633741944231,-53.75284975291507L-44.018759620777836,-55.54282567999739zM-33.880030635253966,-104.18321758092934L-51.06409957896749,-51.86436908639266L-47.56633741944231,-53.75284975291507zM-33.880030635253966,-104.18321758092934L-44.018759620777836,-55.54282567999739L-40.42723799875731,-57.23132144462045zM-33.880030635253966,-104.18321758092934L-54.50623143142718,-49.88048094747446L-51.06409957896749,-51.86436908639266zM-33.880030635253966,-104.18321758092934L-40.42723799875731,-57.23132144462045L-36.79770170786685,-58.81548390302108zM-33.880030635253966,-104.18321758092934L-57.88699711702973,-47.80441829490748L-54.50623143142718,-49.88048094747446zM-33.880030635253966,-104.18321758092934L-36.79770170786685,-58.81548390302108L-33.13613964723382,-60.2925934937535zM-31.002339487849028,-106.43960990526409L-33.13613964723382,-60.2925934937535L-29.448595073380147,-61.66006537921492zM-33.880030635253966,-104.18321758092934L-61.20071646846787,-45.63952677908002L-57.88699711702973,-47.80441829490748zM-27.83506188757146,-108.4527787084186L-29.448595073380147,-61.66006537921492L-25.74116417888766,-62.91543160252251zM-33.880030635253966,-104.18321758092934L-64.44178489960467,-43.38928083799999L-61.20071646846787,-45.63952677908002zM-24.456476377169807,-110.17350079200818L-25.74116417888766,-62.91543160252251L-22.01998992705095,-64.05638291728074zM-33.880030635253966,-104.18321758092934L-67.60466621137738,-41.057272833373204L-64.44178489960467,-43.38928083799999zM-33.880030635253966,-104.18321758092934L-70.68391300929187,-38.64722205723122L-67.60466621137738,-41.057272833373204zM-17.400917116728383,-112.57594085987168L-22.01998992705095,-64.05638291728074L-18.291267373126278,-65.08072475523967zM-33.880030635253966,-104.18321758092934L-73.67415382695866,-36.16296525546823L-70.68391300929187,-38.64722205723122zM-17.400917116728383,-112.57594085987168L-18.291267373126278,-65.08072475523967L-14.561233929256959,-65.98641374061164zM-33.880030635253966,-104.18321758092934L-76.57008875020341,-33.60845515025154L-73.67415382695866,-36.16296525546823zM-33.880030635253966,-104.18321758092934L-79.36652638771099,-30.987777706602845L-76.57008875020341,-33.60845515025154zM-10.527123200030875,-113.40564760116666L-14.561233929256959,-65.98641374061164L-10.83616589951257,-66.77155707377558zM-33.880030635253966,-104.18321758092934L-82.05837093576842,-28.30512329893718L-79.36652638771099,-30.987777706602845zM-33.880030635253966,-104.18321758092934L-84.64061511580344,-25.564809976316617L-82.05837093576842,-28.30512329893718zM-7.3738195279306495,-113.19467562303377L-10.83616589951257,-66.77155707377558L-7.122381353936958,-67.43440109180384z" style="fill:rgb(83,212,212)"/><path d="M-44.018759620777836,-55.54282567999739L-40.30017497547031,-40.11643179263282L-36.796502743754345,-41.88361956641028z" style="fill:rgb(164,51,222)"/><path d="M-47.56633741944231,-53.75284975291507L-43.75372802407493,-38.250230732241846L-40.30017497547031,-40.11643179263282z" style="fill:rgb(169,54,222)"/><path d="M-33.880030635253966,-104.18321758092934L-87.10837401711046,-22.771275506195952L-84.64061511580344,-25.564809976316617z" style="fill:rgb(83,212,212)"/><path d="M-40.42723799875731,-57.23132144462045L-36.796502743754345,-41.88361956641028L-33.24851610758623,-43.54884789410449z" style="fill:rgb(159,48,222)"/><path d="M-51.06409957896749,-51.86436908639266L-47.15140417641726,-36.288086066705674L-43.75372802407493,-38.250230732241846z" style="fill:rgb(174,56,222)"/><path d="M-36.79770170786685,-58.81548390302108L-33.24851610758623,-43.54884789410449L-29.662102291147928,-45.10929474980786z" style="fill:rgb(154,46,222)"/><path d="M-54.50623143142718,-49.88048094747446L-50.48751705328246,-34.23320393648349L-47.15140417641726,-36.288086066705674z" style="fill:rgb(179,59,222)"/><path d="M-33.13613964723382,-60.2925934937535L-29.662102291147928,-45.10929474980786L-26.043188343430803,-46.56227680997311z" style="fill:rgb(149,44,221)"/><path d="M-57.88699711702973,-47.80441829490748L-53.756450142924685,-32.08890613343284L-50.48751705328246,-34.23320393648349z" style="fill:rgb(184,62,221)"/><path d="M-4.5181607673522395,-112.56687621519582L-7.122381353936958,-67.43440109180384L-3.426231435602726,-67.9733481429831zM-33.880030635253966,-104.18321758092934L-89.4568509689204,-19.92906721160384L-87.10837401711046,-22.771275506195952z" style="fill:rgb(83,212,212)"/><path d="M-29.448595073380147,-61.66006537921492L-26.043188343430803,-46.56227680997311L-22.397765681204472,-47.90523242297454z" style="fill:rgb(143,42,221)"/><path d="M-53.756450142924685,-32.08890613343284L-64.44178489960467,-43.38928083799999L-56.95265809075196,-29.85864322088287z" style="fill:rgb(189,66,220)"/><path d="M-25.74116417888766,-62.91543160252251L-22.397765681204472,-47.90523242297454L-18.731877247146986,-49.13574475808398z" style="fill:rgb(138,40,220)"/><path d="M-56.95265809075196,-29.85864322088287L-67.60466621137738,-41.057272833373204L-60.07066636998876,-27.545987698745467z" style="fill:rgb(193,69,219)"/><path d="M-33.880030635253966,-104.18321758092934L-91.68138715467009,-17.042858253878066L-89.4568509689204,-19.92906721160384z" style="fill:rgb(83,212,212)"/><path d="M-22.01998992705095,-64.05638291728074L-18.731877247146986,-49.13574475808398L-15.051613249759162,-50.251527526911616z" style="fill:rgb(132,38,218)"/><path d="M-60.07066636998876,-27.545987698745467L-70.68391300929187,-38.64722205723122L-63.105089408270615,-25.15463410809411z" style="fill:rgb(198,73,218)"/><path d="M-18.291267373126278,-65.08072475523967L-15.051613249759162,-50.251527526911616L-11.363116080313041,-51.250436794648465z" style="fill:rgb(127,37,217)"/><path d="M-33.880030635253966,-104.18321758092934L-93.77746138720343,-14.11743008862396L-91.68138715467009,-17.042858253878066z" style="fill:rgb(83,212,212)"/><path d="M-63.105089408270615,-25.15463410809411L-73.67415382695866,-36.16296525546823L-66.05061284047154,-22.68840002145226z" style="fill:rgb(202,76,217)"/><path d="M-40.30017497547031,-40.11643179263282L-44.018759620777836,-55.54282567999739L-47.56633741944231,-53.75284975291507z" style="fill:rgb(164,51,222)"/><path d="M-43.75372802407493,-38.250230732241846L-47.56633741944231,-53.75284975291507L-51.06409957896749,-51.86436908639266z" style="fill:rgb(169,54,222)"/><path d="M-36.796502743754345,-41.88361956641028L-40.42723799875731,-57.23132144462045L-44.018759620777836,-55.54282567999739z" style="fill:rgb(159,48,222)"/><path d="M-47.15140417641726,-36.288086066705674L-51.06409957896749,-51.86436908639266L-54.50623143142718,-49.88048094747446z" style="fill:rgb(174,56,222)"/><path d="M-33.24851610758623,-43.54884789410449L-36.79770170786685,-58.81548390302108L-40.42723799875731,-57.23132144462045z" style="fill:rgb(154,46,222)"/><path d="M-14.561233929256959,-65.98641374061164L-11.363116080313041,-51.250436794648465L-7.6725704410674025,-52.1304708205512z" style="fill:rgb(122,36,216)"/><path d="M-50.48751705328246,-34.23320393648349L-54.50623143142718,-49.88048094747446L-57.88699711702973,-47.80441829490748z" style="fill:rgb(179,59,222)"/><path d="M-29.662102291147928,-45.10929474980786L-33.13613964723382,-60.2925934937535L-36.79770170786685,-58.81548390302108z" style="fill:rgb(149,44,221)"/><path d="M-66.05061284047154,-22.68840002145226L-76.57008875020341,-33.60845515025154L-68.90202449656786,-20.151225352447558z" style="fill:rgb(206,80,215)"/><path d="M-53.756450142924685,-32.08890613343284L-57.88699711702973,-47.80441829490748L-61.20071646846787,-45.63952677908002z" style="fill:rgb(184,62,221)"/><path d="M-4.5181607673522395,-112.56687621519582L-3.426231435602726,-67.9733481429831L62.469523621358334,-91.06588678821413z" style="fill:rgb(83,212,212)"/><path d="M-26.043188343430803,-46.56227680997311L-29.448595073380147,-61.66006537921492L-33.13613964723382,-60.2925934937535z" style="fill:rgb(143,42,221)"/><path d="M-64.44178489960467,-43.38928083799999L-53.756450142924685,-32.08890613343284L-61.20071646846787,-45.63952677908002z" style="fill:rgb(189,66,220)"/><path d="M-10.83616589951257,-66.77155707377558L-7.6725704410674025,-52.1304708205512L-3.986201400055897,-52.88977228591744z" style="fill:rgb(116,34,214)"/><path d="M-22.397765681204472,-47.90523242297454L-25.74116417888766,-62.91543160252251L-29.448595073380147,-61.66006537921492z" style="fill:rgb(138,40,220)"/><path d="M-67.60466621137738,-41.057272833373204L-56.95265809075196,-29.85864322088287L-64.44178489960467,-43.38928083799999z" style="fill:rgb(193,69,219)"/><path d="M-68.90202449656786,-20.151225352447558L-79.36652638771099,-30.987777706602845L-71.65417716681795,-17.54717121191484z" style="fill:rgb(210,84,213)"/><path d="M-18.731877247146986,-49.13574475808398L-22.01998992705095,-64.05638291728074L-25.74116417888766,-62.91543160252251z" style="fill:rgb(132,38,218)"/><path d="M-7.122381353936958,-67.43440109180384L-3.986201400055897,-52.88977228591744L-0.31027461729303113,-53.52663692089636z" style="fill:rgb(111,34,212)"/><path d="M-70.68391300929187,-38.64722205723122L-60.07066636998876,-27.545987698745467L-67.60466621137738,-41.057272833373204z" style="fill:rgb(198,73,218)"/><path d="M-15.051613249759162,-50.251527526911616L-18.291267373126278,-65.08072475523967L-22.01998992705095,-64.05638291728074z" style="fill:rgb(127,37,217)"/><path d="M-71.65417716681795,-17.54717121191484L-82.05837093576842,-28.30512329893718L-74.3020516269611,-14.880417521889433z" style="fill:rgb(214,87,211)"/><path d="M-73.67415382695866,-36.16296525546823L-63.105089408270615,-25.15463410809411L-70.68391300929187,-38.64722205723122z" style="fill:rgb(202,76,217)"/><path d="M-3.426231435602726,-67.9733481429831L-0.31027461729303113,-53.52663692089636L3.3489111740217,-54.039512821785365z" style="fill:rgb(105,33,210)"/><path d="M-11.363116080313041,-51.250436794648465L-14.561233929256959,-65.98641374061164L-18.291267373126278,-65.08072475523967z" style="fill:rgb(122,36,216)"/><path d="M-76.57008875020341,-33.60845515025154L-66.05061284047154,-22.68840002145226L-73.67415382695866,-36.16296525546823z" style="fill:rgb(206,80,215)"/><path d="M-74.3020516269611,-14.880417521889433L-84.64061511580344,-25.564809976316617L-76.840709649194,-12.155265803539573z" style="fill:rgb(218,91,209)"/><path d="M-7.6725704410674025,-52.1304708205512L-10.83616589951257,-66.77155707377558L-14.561233929256959,-65.98641374061164z" style="fill:rgb(116,34,214)"/><path d="M0.24590128171245476,-68.3869574535668L3.3489111740217,-54.039512821785365L6.985025573042444,-54.42700143204343z" style="fill:rgb(100,32,208)"/><path d="M-79.36652638771099,-30.987777706602845L-68.90202449656786,-20.151225352447558L-76.57008875020341,-33.60845515025154z" style="fill:rgb(210,84,213)"/><path d="M-76.840709649194,-12.155265803539573L-87.10837401711046,-22.771275506195952L-79.26533164161783,-9.376136665543472z" style="fill:rgb(221,95,207)"/><path d="M-3.986201400055897,-52.88977228591744L-7.122381353936958,-67.43440109180384L-10.83616589951257,-66.77155707377558z" style="fill:rgb(111,34,212)"/><path d="M-82.05837093576842,-28.30512329893718L-71.65417716681795,-17.54717121191484L-79.36652638771099,-30.987777706602845z" style="fill:rgb(214,87,211)"/><path d="M3.887608510216606,-68.67393378392359L6.985025573042444,-54.42700143204343L10.591713451106667,-54.6878798656456z" style="fill:rgb(95,32,206)"/><path d="M-0.31027461729303113,-53.52663692089636L-3.426231435602726,-67.9733481429831L-7.122381353936958,-67.43440109180384z" style="fill:rgb(105,33,210)"/><path d="M-79.26533164161783,-9.376136665543472L-89.4568509689204,-19.92906721160384L-81.57120761408993,-6.547567198496188z" style="fill:rgb(224,100,205)"/><path d="M-84.64061511580344,-25.564809976316617L-74.3020516269611,-14.880417521889433L-82.05837093576842,-28.30512329893718z" style="fill:rgb(218,91,209)"/><path d="M7.492460065861202,-68.83317691476364L10.591713451106667,-54.6878798656456L14.162595674424272,-54.82107649371619z" style="fill:rgb(90,32,203)"/><path d="M-99.37648405077348,-46.45446971156658L-95.74066455072534,-11.157681744140808L-93.77746138720343,-14.11743008862396z" style="fill:rgb(83,212,212)"/><path d="M3.3489111740217,-54.039512821785365L0.24590128171245476,-68.3869574535668L-3.426231435602726,-67.9733481429831z" style="fill:rgb(100,32,208)"/><path d="M-81.57120761408993,-6.547567198496188L-91.68138715467009,-17.042858253878066L-83.75375465240506,-3.674214081951209z" style="fill:rgb(227,104,202)"/><path d="M-87.10837401711046,-22.771275506195952L-76.840709649194,-12.155265803539573L-84.64061511580344,-25.564809976316617z" style="fill:rgb(221,95,207)"/><path d="M-99.37648405077348,-46.45446971156658L-97.56674145406382,-8.168622552447777L-95.74066455072534,-11.157681744140808z" style="fill:rgb(83,212,212)"/><path d="M11.054009272544587,-68.8637387871061L14.162595674424272,-54.82107649371619L17.691280029599135,-54.82570498317977z" style="fill:rgb(85,32,200)"/><path d="M6.985025573042444,-54.42700143204343L3.887608510216606,-68.67393378392359L0.24590128171245476,-68.3869574535668z" style="fill:rgb(95,32,206)"/><path d="M-83.75375465240506,-3.674214081951209L-93.77746138720343,-14.11743008862396L-85.80850470201312,-0.7608488798154283z" style="fill:rgb(230,108,199)"/><path d="M-89.4568509689204,-19.92906721160384L-79.26533164161783,-9.376136665543472L-87.10837401711046,-22.771275506195952z" style="fill:rgb(224,100,205)"/><path d="M-99.37648405077348,-46.45446971156658L-99.25159714709125,-5.1553703340092865L-97.56674145406382,-8.168622552447777z" style="fill:rgb(83,212,212)"/><path d="M10.591713451106667,-54.6878798656456L7.492460065861202,-68.83317691476364L3.887608510216606,-68.67393378392359z" style="fill:rgb(90,32,203)"/><path d="M14.565798111511238,-68.76485404003365L17.691280029599135,-54.82570498317977L21.1713596182215,-54.70105101267571z" style="fill:rgb(80,32,198)"/><path d="M-91.68138715467009,-17.042858253878066L-81.57120761408993,-6.547567198496188L-89.4568509689204,-19.92906721160384z" style="fill:rgb(227,104,202)"/><path d="M-85.80850470201312,-0.7608488798154283L-95.74066455072534,-11.157681744140808L-87.73114926205115,2.1876428051569565z" style="fill:rgb(233,112,196)"/><path d="M-99.37648405077348,-46.45446971156658L-100.79129417823545,-2.1231526227916806L-99.25159714709125,-5.1553703340092865z" style="fill:rgb(83,212,212)"/><path d="M14.162595674424272,-54.82107649371619L11.054009272544587,-68.8637387871061L7.492460065861202,-68.83317691476364z" style="fill:rgb(85,32,200)"/><path d="M18.021366380144134,-68.53592990004492L21.1713596182215,-54.70105101267571L24.596429850221316,-54.44658513147832z" style="fill:rgb(75,32,195)"/><path d="M-99.37648405077348,-46.45446971156658L-102.18206390357906,0.922702287782165L-100.79129417823545,-2.1231526227916806z" style="fill:rgb(83,212,212)"/><path d="M-93.77746138720343,-14.11743008862396L-83.75375465240506,-3.674214081951209L-91.68138715467009,-17.042858253878066z" style="fill:rgb(230,108,199)"/><path d="M-87.73114926205115,2.1876428051569565L-97.56674145406382,-8.168622552447777L-89.51751229832486,5.166262579136373z" style="fill:rgb(235,116,193)"/><path d="M17.691280029599135,-54.82570498317977L14.565798111511238,-68.76485404003365L11.054009272544587,-68.8637387871061z" style="fill:rgb(80,32,198)"/><path d="M21.414254669203,-68.17657542704075L24.596429850221316,-54.44658513147832L27.960084333484115,-54.06197467224542z" style="fill:rgb(70,33,192)"/><path d="M-99.37648405077348,-46.45446971156658L-103.42032747050293,3.9767651140454796L-102.18206390357906,0.922702287782165z" style="fill:rgb(83,212,212)"/><path d="M-95.74066455072534,-11.157681744140808L-85.80850470201312,-0.7608488798154283L-93.77746138720343,-14.11743008862396z" style="fill:rgb(233,112,196)"/><path d="M62.469523621358334,-91.06588678821413L-3.426231435602726,-67.9733481429831L0.24590128171245476,-68.3869574535668z" style="fill:rgb(83,212,212)"/><path d="M-89.51751229832486,5.166262579136373L-99.25159714709125,-5.1553703340092865L-91.16356416528357,8.16990245571975z" style="fill:rgb(238,121,190)"/><path d="M31.255929897338003,-53.54707542493065L21.414254669203,-68.17657542704075L27.960084333484115,-54.06197467224542z" style="fill:rgb(65,34,188)"/><path d="M21.1713596182215,-54.70105101267571L18.021366380144134,-68.53592990004492L14.565798111511238,-68.76485404003365z" style="fill:rgb(75,32,195)"/><path d="M62.469523621358334,-91.06588678821413L0.24590128171245476,-68.3869574535668L3.887608510216606,-68.67393378392359zM-99.37648405077348,-46.45446971156658L-104.50270977083015,7.033511463701988L-103.42032747050293,3.9767651140454796z" style="fill:rgb(83,212,212)"/><path d="M-97.56674145406382,-8.168622552447777L-87.73114926205115,2.1876428051569565L-95.74066455072534,-11.157681744140808z" style="fill:rgb(235,116,193)"/><path d="M62.469523621358334,-91.06588678821413L3.887608510216606,-68.67393378392359L7.492460065861202,-68.83317691476364z" style="fill:rgb(83,212,212)"/><path d="M-91.16356416528357,8.16990245571975L-100.79129417823545,-2.1231526227916806L-92.66545672359563,11.193348480062568z" style="fill:rgb(240,125,187)"/><path d="M-99.37648405077348,-46.45446971156658L-105.4260241546228,10.087326440850715L-104.50270977083015,7.033511463701988z" style="fill:rgb(83,212,212)"/><path d="M24.596429850221316,-54.44658513147832L21.414254669203,-68.17657542704075L18.021366380144134,-68.53592990004492z" style="fill:rgb(70,33,192)"/><path d="M34.47758895413691,-52.90194814700177L24.73801582683399,-67.68659551312541L31.255929897338003,-53.54707542493065z" style="fill:rgb(61,35,185)"/><path d="M62.469523621358334,-91.06588678821413L7.492460065861202,-68.83317691476364L11.054009272544587,-68.8637387871061z" style="fill:rgb(83,212,212)"/><path d="M-99.25159714709125,-5.1553703340092865L-89.51751229832486,5.166262579136373L-97.56674145406382,-8.168622552447777z" style="fill:rgb(238,121,190)"/><path d="M62.469523621358334,-91.06588678821413L11.054009272544587,-68.8637387871061L14.565798111511238,-68.76485404003365zM-99.37648405077348,-46.45446971156658L-106.1873202874447,13.132509756504387L-105.4260241546228,10.087326440850715z" style="fill:rgb(83,212,212)"/><path d="M-92.66545672359563,11.193348480062568L-102.18206390357906,0.922702287782165L-94.01950421734001,14.2312803816707z" style="fill:rgb(241,129,183)"/><path d="M37.6187176439491,-52.12686340010719L27.986217792738557,-67.06599088825105L34.47758895413691,-52.90194814700177z" style="fill:rgb(56,36,181)"/><path d="M21.414254669203,-68.17657542704075L31.255929897338003,-53.54707542493065L24.73801582683399,-67.68659551312541z" style="fill:rgb(65,34,188)"/><path d="M62.469523621358334,-91.06588678821413L14.565798111511238,-68.76485404003365L18.021366380144134,-68.53592990004492z" style="fill:rgb(83,212,212)"/><path d="M-100.79129417823545,-2.1231526227916806L-91.16356416528357,8.16990245571975L-99.25159714709125,-5.1553703340092865z" style="fill:rgb(240,125,187)"/><path d="M-99.37648405077348,-46.45446971156658L-106.78387092471738,16.163284582336097L-106.1873202874447,13.132509756504387z" style="fill:rgb(83,212,212)"/><path d="M79.6652334365512,-71.93585927462571L71.02166021345286,-87.70185905311911L76.972167885365,-73.25235102712858z" style="fill:rgb(37,45,163)"/><path d="M-94.01950421734001,14.2312803816707L-103.42032747050293,3.9767651140454796L-95.22221154376287,17.278279310637306z" style="fill:rgb(243,134,180)"/><path d="M62.469523621358334,-91.06588678821413L18.021366380144134,-68.53592990004492L21.414254669203,-68.17657542704075z" style="fill:rgb(83,212,212)"/><path d="M40.673002769995605,-51.22230797931051L31.15246253902156,-66.31496049022218L37.6187176439491,-52.12686340010719z" style="fill:rgb(52,37,178)"/><path d="M24.73801582683399,-67.68659551312541L34.47758895413691,-52.90194814700177L27.986217792738557,-67.06599088825105z" style="fill:rgb(61,35,185)"/><path d="M-99.37648405077348,-46.45446971156658L-107.21319788021658,19.173799550617854L-106.78387092471738,16.163284582336097z" style="fill:rgb(83,212,212)"/><path d="M-102.18206390357906,0.922702287782165L-92.66545672359563,11.193348480062568L-100.79129417823545,-2.1231526227916806z" style="fill:rgb(241,129,183)"/><path d="M62.469523621358334,-91.06588678821413L21.414254669203,-68.17657542704075L24.73801582683399,-67.68659551312541z" style="fill:rgb(83,212,212)"/><path d="M-95.22221154376287,17.278279310637306L-104.50270977083015,7.033511463701988L-96.27028785520868,20.32883200096599z" style="fill:rgb(244,138,176)"/><path d="M82.28504528875811,-70.53400929328491L73.73355762113376,-86.4075215193303L79.6652334365512,-71.93585927462571z" style="fill:rgb(34,46,160)"/><path d="M62.469523621358334,-91.06588678821413L24.73801582683399,-67.68659551312541L27.986217792738557,-67.06599088825105z" style="fill:rgb(83,212,212)"/><path d="M43.63419017138928,-50.18898746653952L34.23038374780031,-65.43394053159467L40.673002769995605,-51.22230797931051z" style="fill:rgb(48,39,174)"/><path d="M27.986217792738557,-67.06599088825105L37.6187176439491,-52.12686340010719L31.15246253902156,-66.31496049022218z" style="fill:rgb(56,36,181)"/><path d="M-103.42032747050293,3.9767651140454796L-94.01950421734001,14.2312803816707L-102.18206390357906,0.922702287782165z" style="fill:rgb(243,134,180)"/><path d="M-125.78952655720768,-16.610136847133017L-136.72799626861868,72.47942239814459L-123.77937531306286,-19.483750449050316zM-127.71307921919589,-13.712366922479893L-138.12166530477688,70.02084171976313L-125.78952655720768,-16.610136847133017zM62.469523621358334,-91.06588678821413L27.986217792738557,-67.06599088825105L31.15246253902156,-66.31496049022218z" style="fill:rgb(83,212,212)"/><path d="M71.02166021345286,-87.70185905311911L79.6652334365512,-71.93585927462571L73.73355762113376,-86.4075215193303z" style="fill:rgb(37,45,163)"/><path d="M-96.27028785520868,20.32883200096599L-105.4260241546228,10.087326440850715L-97.1606322890251,23.377333006469282z" style="fill:rgb(245,142,173)"/><path d="M-102.13637171472368,-43.93001322367485L-116.19752139032703,93.35301895400879L-99.37648405077348,-46.45446971156658zM-117.2499167549522,-27.939106780480618L-127.93927175501923,83.83273681763151L-114.9140728147366,-30.69574584641744zM-119.50748743243315,-25.15024992318001L-129.93757337250537,81.69721719197733L-117.2499167549522,-27.939106780480618z" style="fill:rgb(83,212,212)"/><path d="M84.82869229655779,-69.0473395920505L76.37114553843644,-85.02731379935392L82.28504528875811,-70.53400929328491z" style="fill:rgb(32,48,157)"/><path d="M-114.9140728147366,-30.69574584641744L-125.822533757618,85.89486277526782L-112.50210412758686,-33.41825397487927zM-121.68467022268179,-22.33113342380701L-131.81639318048374,79.49118946980661L-119.50748743243315,-25.15024992318001zM-112.50210412758686,-33.41825397487927L-123.58854930997889,87.8807410139318L-110.01616505881924,-36.10475448718008zM-123.77937531306286,-19.483750449050316L-133.57485759442054,77.21757502384636L-121.68467022268179,-22.33113342380701zM-110.01616505881924,-36.10475448718008L-121.238674961585,89.78755318233785L-107.45843104457366,-38.753409415505764zM-107.45843104457366,-38.753409415505764L-118.77443048853635,91.61254583856083L-104.83109322394935,-41.3624166738793z" style="fill:rgb(83,212,212)"/><path d="M46.49607419486115,-49.02784486400819L37.21366495399004,-64.42357496902083L43.63419017138928,-50.18898746653952z" style="fill:rgb(44,41,170)"/><path d="M31.15246253902156,-66.31496049022218L40.673002769995605,-51.22230797931051L34.23038374780031,-65.43394053159467z" style="fill:rgb(52,37,178)"/><path d="M-104.83109322394935,-41.3624166738793L-116.19752139032703,93.35301895400879L-102.13637171472368,-43.93001322367485zM-129.54801548385586,-10.79256082112063L-138.12166530477688,70.02084171976313L-127.71307921919589,-13.712366922479893z" style="fill:rgb(83,212,212)"/><path d="M-104.50270977083015,7.033511463701988L-95.22221154376287,17.278279310637306L-103.42032747050293,3.9767651140454796z" style="fill:rgb(244,138,176)"/><path d="M-131.29234318170427,-7.852876139799561L-139.3929744455421,67.50658419785142L-129.54801548385586,-10.79256082112063zM62.469523621358334,-91.06588678821413L31.15246253902156,-66.31496049022218L34.23038374780031,-65.43394053159467zM-132.94410407570425,-4.89551387378393L-140.54177280822958,64.93964761019465L-131.29234318170427,-7.852876139799561zM-134.50137636483583,-1.9227191467312799L-141.5680461837266,62.323047650295784L-132.94410407570425,-4.89551387378393zM-135.96227407023034,1.0632230224702235L-142.47191078658295,59.659783369151015L-134.50137636483583,-1.9227191467312799z" style="fill:rgb(83,212,212)"/><path d="M-97.1606322890251,23.377333006469282L-106.1873202874447,13.132509756504387L-97.89037164155228,26.418089946113952z" style="fill:rgb(246,146,169)"/><path d="M73.73355762113376,-86.4075215193303L82.28504528875811,-70.53400929328491L76.37114553843644,-85.02731379935392z" style="fill:rgb(34,46,160)"/><path d="M-137.32493325782457,4.059984174156787L-143.25360724330105,56.95285166753362L-135.96227407023034,1.0632230224702235zM62.469523621358334,-91.06588678821413L34.23038374780031,-65.43394053159467L37.21366495399004,-64.42357496902083z" style="fill:rgb(83,212,212)"/><path d="M87.29329580935267,-67.47646212904881L78.93150728431473,-83.56174084043761L84.82869229655779,-69.0473395920505z" style="fill:rgb(30,49,154)"/><path d="M34.23038374780031,-65.43394053159467L43.63419017138928,-50.18898746653952L37.21366495399004,-64.42357496902083z" style="fill:rgb(48,39,174)"/><path d="M49.25252815338247,-47.740048389357604L40.09605519004105,-63.28473641162748L46.49607419486115,-49.02784486400819z" style="fill:rgb(40,43,167)"/><path d="M-138.58755946183402,7.06519329604674L-143.9134788546414,54.20524183147543L-137.32493325782457,4.059984174156787z" style="fill:rgb(83,212,212)"/><path d="M-105.4260241546228,10.087326440850715L-96.27028785520868,20.32883200096599L-104.50270977083015,7.033511463701988z" style="fill:rgb(245,142,173)"/><path d="M-140.8056513017914,13.091260286661141L-145.16746152387833,45.748010976080565L-139.74836869795604,10.076437615128746zM-139.74836869795604,10.076437615128746L-144.45201377885306,51.419934274439605L-138.58755946183402,7.06519329604674zM62.469523621358334,-91.06588678821413L37.21366495399004,-64.42357496902083L40.09605519004105,-63.28473641162748zM-141.75774135454316,16.10716645520842L-145.16746152387833,45.748010976080565L-140.8056513017914,13.091260286661141z" style="fill:rgb(83,212,212)"/><path d="M-97.89037164155228,26.418089946113952L-106.78387092471738,16.163284582336097L-98.45687987714308,29.445339002203696z" style="fill:rgb(246,151,165)"/><path d="M76.37114553843644,-85.02731379935392L84.82869229655779,-69.0473395920505L78.93150728431473,-83.56174084043761z" style="fill:rgb(32,48,157)"/><path d="M37.21366495399004,-64.42357496902083L46.49607419486115,-49.02784486400819L40.09605519004105,-63.28473641162748z" style="fill:rgb(44,41,170)"/><path d="M89.67599581456874,-65.8220584872281L81.41171154955023,-82.01137269299711L87.29329580935267,-67.47646212904881z" style="fill:rgb(28,51,152)"/><path d="M51.89750689767663,-46.32701591017709L42.8713696362175,-62.0185347900302L49.25252815338247,-47.740048389357604z" style="fill:rgb(36,45,163)"/><path d="M-142.60300701705745,19.121616909638412L-145.34586512648937,42.86725761749215L-141.75774135454316,16.10716645520842z" style="fill:rgb(83,212,212)"/><path d="M-106.1873202874447,13.132509756504387L-97.1606322890251,23.377333006469282L-105.4260241546228,10.087326440850715z" style="fill:rgb(246,146,169)"/><path d="M62.469523621358334,-91.06588678821413L40.09605519004105,-63.28473641162748L42.8713696362175,-62.0185347900302zM-143.96691096820177,25.13579567062409L-145.1746245168215,34.08040366858966L-143.3398960588047,22.132032760117397zM-143.3398960588047,22.132032760117397L-145.40585541546557,39.96049910463179L-142.60300701705745,19.121616909638412z" style="fill:rgb(83,212,212)"/><path d="M-98.45687987714308,29.445339002203696L-107.21319788021658,19.173799550617854L-98.85775673587212,32.4532354386766z" style="fill:rgb(247,155,161)"/><path d="M78.93150728431473,-83.56174084043761L87.29329580935267,-67.47646212904881L81.41171154955023,-82.01137269299711z" style="fill:rgb(30,49,154)"/><path d="M62.469523621358334,-91.06588678821413L42.8713696362175,-62.0185347900302L45.533508368191306,-60.62632510741824zM-144.48261157178575,28.13024793181197L-145.1746245168215,34.08040366858966L-143.96691096820177,25.13579567062409z" style="fill:rgb(83,212,212)"/><path d="M40.09605519004105,-63.28473641162748L49.25252815338247,-47.740048389357604L42.8713696362175,-62.0185347900302z" style="fill:rgb(40,43,167)"/><path d="M91.97395248382125,-64.08493030931416L83.80887622159065,-80.37687989338625L89.67599581456874,-65.8220584872281z" style="fill:rgb(25,53,149)"/><path d="M54.42506748879056,-44.79041022249679L45.533508368191306,-60.62632510741824L51.89750689767663,-46.32701591017709z" style="fill:rgb(33,47,159)"/><path d="M-106.78387092471738,16.163284582336097L-97.89037164155228,26.418089946113952L-106.1873202874447,13.132509756504387z" style="fill:rgb(246,151,165)"/><path d="M-107.21319788021658,19.173799550617854L-99.09087126516636,35.43588032859031L-98.85775673587212,32.4532354386766z" style="fill:rgb(247,159,157)"/><path d="M62.469523621358334,-91.06588678821413L45.533508368191306,-60.62632510741824L48.076479113687284,-59.10970861823216zM-145.1746245168215,34.08040366858966L-144.48261157178575,28.13024793181197L-144.88561621884307,31.112693248373567zM-143.3398960588047,22.132032760117397L-145.1746245168215,34.08040366858966L-145.34841919705897,37.030604175957976z" style="fill:rgb(83,212,212)"/><path d="M81.41171154955023,-82.01137269299711L89.67599581456874,-65.8220584872281L83.80887622159065,-80.37687989338625z" style="fill:rgb(28,51,152)"/><path d="M42.8713696362175,-62.0185347900302L51.89750689767663,-46.32701591017709L45.533508368191306,-60.62632510741824z" style="fill:rgb(36,45,163)"/><path d="M-107.21319788021658,19.173799550617854L-98.45687987714308,29.445339002203696L-106.78387092471738,16.163284582336097z" style="fill:rgb(247,155,161)"/><path d="M56.829378659783984,-43.13214504984363L48.076479113687284,-59.10970861823216L54.42506748879056,-44.79041022249679z" style="fill:rgb(30,49,154)"/><path d="M94.18434016601701,-62.26592968828519L86.12013176322462,-78.65900700678816L91.97395248382125,-64.08493030931416z" style="fill:rgb(24,55,146)"/><path d="M62.469523621358334,-91.06588678821413L48.076479113687284,-59.10970861823216L50.49438915725675,-57.47053707138218zM-143.3398960588047,22.132032760117397L-145.34841919705897,37.030604175957976L-145.40585541546557,39.96049910463179z" style="fill:rgb(83,212,212)"/><path d="M-107.47308589194161,22.15814552626195L-99.154367032973,38.387311319433806L-99.09087126516636,35.43588032859031z" style="fill:rgb(247,163,153)"/><path d="M-142.60300701705745,19.121616909638412L-145.40585541546557,39.96049910463179L-145.34586512648937,42.86725761749215z" style="fill:rgb(83,212,212)"/><path d="M45.533508368191306,-60.62632510741824L54.42506748879056,-44.79041022249679L48.076479113687284,-59.10970861823216z" style="fill:rgb(33,47,159)"/><path d="M83.80887622159065,-80.37687989338625L91.97395248382125,-64.08493030931416L86.12013176322462,-78.65900700678816z" style="fill:rgb(25,53,149)"/><path d="M62.469523621358334,-91.06588678821413L50.49438915725675,-57.47053707138218L52.78148668910148,-55.710926222754836z" style="fill:rgb(83,212,212)"/><path d="M59.104740923486865,-41.35439678071124L50.49438915725675,-57.47053707138218L56.829378659783984,-43.13214504984363z" style="fill:rgb(27,52,150)"/><path d="M-141.75774135454316,16.10716645520842L-145.34586512648937,42.86725761749215L-145.16746152387833,45.748010976080565z" style="fill:rgb(83,212,212)"/><path d="M96.30437315030318,-60.36601375152989L88.34261450802062,-76.85857599480195L94.18434016601701,-62.26592968828519z" style="fill:rgb(22,57,143)"/><path d="M-139.74836869795604,10.076437615128746L-145.16746152387833,45.748010976080565L-144.8697756033095,48.59987582617776zM62.469523621358334,-91.06588678821413L66.61559228286092,-34.938959040005L65.38669198137227,-90.03134973586185z" style="fill:rgb(83,212,212)"/><path d="M-99.09087126516636,35.43588032859031L-107.21319788021658,19.173799550617854L-107.47308589194161,22.15814552626195z" style="fill:rgb(247,159,157)"/><path d="M-107.56158591255017,25.11035067803946L-99.04666025587485,41.301529360753946L-99.154367032973,38.387311319433806z" style="fill:rgb(246,167,149)"/><path d="M62.469523621358334,-91.06588678821413L52.78148668910148,-55.710926222754836L54.932163362899864,-53.833264502257094zM-139.74836869795604,10.076437615128746L-144.8697756033095,48.59987582617776L-144.45201377885306,51.419934274439605z" style="fill:rgb(83,212,212)"/><path d="M48.076479113687284,-59.10970861823216L56.829378659783984,-43.13214504984363L50.49438915725675,-57.47053707138218z" style="fill:rgb(30,49,154)"/><path d="M86.12013176322462,-78.65900700678816L94.18434016601701,-62.26592968828519L88.34261450802062,-76.85857599480195zM61.245589270912085,-39.45961329539418L52.78148668910148,-55.710926222754836L59.104740923486865,-41.35439678071124z" style="fill:rgb(24,55,146)"/><path d="M98.33129983005038,-58.386240730479955L90.47352398891358,-74.97652191185884L96.30437315030318,-60.36601375152989z" style="fill:rgb(20,59,140)"/><path d="M-138.58755946183402,7.06519329604674L-144.45201377885306,51.419934274439605L-143.9134788546414,54.20524183147543zM62.469523621358334,-91.06588678821413L54.932163362899864,-53.833264502257094L56.940974512825925,-51.840198539016434z" style="fill:rgb(83,212,212)"/><path d="M-99.154367032973,38.387311319433806L-107.47308589194161,22.15814552626195L-107.56158591255017,25.11035067803946z" style="fill:rgb(247,163,153)"/><path d="M-107.4770470279709,28.024406839785392L-98.76647755626807,44.17249529315362L-99.04666025587485,41.301529360753946z" style="fill:rgb(246,171,144)"/><path d="M-137.32493325782457,4.059984174156787L-143.9134788546414,54.20524183147543L-143.25360724330105,56.95285166753362z" style="fill:rgb(83,212,212)"/><path d="M50.49438915725675,-57.47053707138218L59.104740923486865,-41.35439678071124L52.78148668910148,-55.710926222754836z" style="fill:rgb(27,52,150)"/><path d="M88.34261450802062,-76.85857599480195L96.30437315030318,-60.36601375152989L90.47352398891358,-74.97652191185884z" style="fill:rgb(22,57,143)"/><path d="M62.469523621358334,-91.06588678821413L56.940974512825925,-51.840198539016434L58.80265260099642,-49.734661983420395z" style="fill:rgb(83,212,212)"/><path d="M63.24652890985767,-37.450499518884264L54.932163362899864,-53.833264502257094L61.245589270912085,-39.45961329539418z" style="fill:rgb(21,58,142)"/><path d="M-99.37648405077348,-46.45446971156658L-116.19752139032703,93.35301895400879L-107.21319788021658,19.173799550617854z" style="fill:rgb(83,212,212)"/><path d="M100.26240629469413,-56.327747175523044L92.51007098741364,-73.01385828769816L98.33129983005038,-58.386240730479955z" style="fill:rgb(18,61,137)"/><path d="M-135.96227407023034,1.0632230224702235L-143.25360724330105,56.95285166753362L-142.47191078658295,59.659783369151015z" style="fill:rgb(83,212,212)"/><path d="M-99.04666025587485,41.301529360753946L-107.56158591255017,25.11035067803946L-107.4770470279709,28.024406839785392z" style="fill:rgb(246,167,149)"/><path d="M-107.21810655772789,30.89426384113498L-98.31285603950312,46.99414723589094L-98.76647755626807,44.17249529315362z" style="fill:rgb(245,174,140)"/><path d="M-134.50137636483583,-1.9227191467312799L-142.47191078658295,59.659783369151015L-141.5680461837266,62.323047650295784zM62.469523621358334,-91.06588678821413L58.80265260099642,-49.734661983420395L60.51212980274337,-47.51985633161452z" style="fill:rgb(83,212,212)"/><path d="M52.78148668910148,-55.710926222754836L61.245589270912085,-39.45961329539418L54.932163362899864,-53.833264502257094z" style="fill:rgb(24,55,146)"/><path d="M90.47352398891358,-74.97652191185884L98.33129983005038,-58.386240730479955L92.51007098741364,-73.01385828769816z" style="fill:rgb(20,59,140)"/><path d="M65.10234867684022,-35.330045630511215L56.940974512825925,-51.840198539016434L63.24652890985767,-37.450499518884264z" style="fill:rgb(19,61,138)"/><path d="M-132.94410407570425,-4.89551387378393L-141.5680461837266,62.323047650295784L-140.54177280822958,64.93964761019465z" style="fill:rgb(83,212,212)"/><path d="M102.09501894826613,-54.191779135178685L94.44951098399731,-70.97169628981929L100.26240629469413,-56.327747175523044z" style="fill:rgb(17,63,134)"/><path d="M-98.76647755626807,44.17249529315362L-107.4770470279709,28.024406839785392L-107.21810655772789,30.89426384113498z" style="fill:rgb(246,171,144)"/><path d="M62.469523621358334,-91.06588678821413L60.51212980274337,-47.51985633161452L62.06455799218381,-45.19927536409628z" style="fill:rgb(83,212,212)"/><path d="M-106.78372957399816,33.713856801665635L-97.68517471777695,49.76041303534681L-98.31285603950312,46.99414723589094z" style="fill:rgb(243,178,136)"/><path d="M-131.29234318170427,-7.852876139799561L-140.54177280822958,64.93964761019465L-139.3929744455421,67.50658419785142z" style="fill:rgb(83,212,212)"/><path d="M54.932163362899864,-53.833264502257094L63.24652890985767,-37.450499518884264L56.940974512825925,-51.840198539016434z" style="fill:rgb(21,58,142)"/><path d="M73.73355762113376,-86.4075215193303L140.36545832173903,-56.338926987543005L71.02166021345286,-87.70185905311911z" style="fill:rgb(83,212,212)"/><path d="M92.51007098741364,-73.01385828769816L100.26240629469413,-56.327747175523044L94.44951098399731,-70.97169628981929z" style="fill:rgb(18,61,137)"/><path d="M-129.54801548385586,-10.79256082112063L-139.3929744455421,67.50658419785142L-138.12166530477688,70.02084171976313z" style="fill:rgb(83,212,212)"/><path d="M66.80802703703083,-33.10150761328056L58.80265260099642,-49.734661983420395L65.10234867684022,-35.330045630511215z" style="fill:rgb(16,64,133)"/><path d="M62.469523621358334,-91.06588678821413L62.06455799218381,-45.19927536409628L63.455333967138706,-42.77669321470376z" style="fill:rgb(83,212,212)"/><path d="M103.8265157404689,-51.979672663610735L96.28914027721002,-68.85123371110403L102.09501894826613,-54.191779135178685z" style="fill:rgb(15,65,131)"/><path d="M-125.78952655720768,-16.610136847133017L-138.12166530477688,70.02084171976313L-136.72799626861868,72.47942239814459z" style="fill:rgb(83,212,212)"/><path d="M-98.31285603950312,46.99414723589094L-107.21810655772789,30.89426384113498L-106.78372957399816,33.713856801665635z" style="fill:rgb(245,174,140)"/><path d="M-106.17319436143481,36.47709914728871L-96.8831242237781,52.46522825603094L-97.68517471777695,49.76041303534681z" style="fill:rgb(242,182,131)"/><path d="M140.36545832173903,-56.338926987543005L73.73355762113376,-86.4075215193303L76.37114553843644,-85.02731379935392zM62.469523621358334,-91.06588678821413L63.455333967138706,-42.77669321470376L64.68009767835201,-40.25616789826504zM-123.77937531306286,-19.483750449050316L-136.72799626861868,72.47942239814459L-135.21225189394835,74.87932795524641z" style="fill:rgb(83,212,212)"/><path d="M56.940974512825925,-51.840198539016434L65.10234867684022,-35.330045630511215L58.80265260099642,-49.734661983420395z" style="fill:rgb(19,61,138)"/><path d="M94.44951098399731,-70.97169628981929L102.09501894826613,-54.191779135178685L96.28914027721002,-68.85123371110403z" style="fill:rgb(17,63,134)"/><path d="M68.35874829841339,-30.768431469737813L60.51212980274337,-47.51985633161452L66.80802703703083,-33.10150761328056z" style="fill:rgb(14,67,129)"/><path d="M140.36545832173903,-56.338926987543005L76.37114553843644,-85.02731379935392L78.93150728431473,-83.56174084043761z" style="fill:rgb(83,212,212)"/><path d="M105.45432976145582,-49.69286163511065L98.02631474122225,-66.65379857404939L103.8265157404689,-51.979672663610735z" style="fill:rgb(14,68,128)"/><path d="M-97.68517471777695,49.76041303534681L-106.78372957399816,33.713856801665635L-106.17319436143481,36.47709914728871z" style="fill:rgb(243,178,136)"/><path d="M62.469523621358334,-91.06588678821413L64.68009767835201,-40.25616789826504L65.73477537525048,-37.64204397403683zM-123.77937531306286,-19.483750449050316L-135.21225189394835,74.87932795524641L-133.57485759442054,77.21757502384636z" style="fill:rgb(83,212,212)"/><path d="M-105.38614050816687,39.17792018299177L-95.90676284568646,55.10253525392207L-96.8831242237781,52.46522825603094z" style="fill:rgb(240,185,127)"/><path d="M140.36545832173903,-56.338926987543005L78.93150728431473,-83.56174084043761L81.41171154955023,-82.01137269299711z" style="fill:rgb(83,212,212)"/><path d="M58.80265260099642,-49.734661983420395L66.80802703703083,-33.10150761328056L60.51212980274337,-47.51985633161452z" style="fill:rgb(16,64,133)"/><path d="M96.28914027721002,-68.85123371110403L103.8265157404689,-51.979672663610735L98.02631474122225,-66.65379857404939z" style="fill:rgb(15,65,131)"/><path d="M-121.68467022268179,-22.33113342380701L-133.57485759442054,77.21757502384636L-131.81639318048374,79.49118946980661z" style="fill:rgb(83,212,212)"/><path d="M69.74996652689211,-28.33464087691079L62.06455799218381,-45.19927536409628L68.35874829841339,-30.768431469737813z" style="fill:rgb(13,71,125)"/><path d="M106.9759454291933,-47.33289769235672L99.65841380456133,-64.38077754867732L105.45432976145582,-49.69286163511065z" style="fill:rgb(13,70,125)"/><path d="M62.469523621358334,-91.06588678821413L65.73477537525048,-37.64204397403683L66.61559228286092,-34.938959040005z" style="fill:rgb(83,212,212)"/><path d="M-96.8831242237781,52.46522825603094L-106.17319436143481,36.47709914728871L-105.38614050816687,39.17792018299177z" style="fill:rgb(242,182,131)"/><path d="M140.36545832173903,-56.338926987543005L81.41171154955023,-82.01137269299711L83.80887622159065,-80.37687989338625zM-119.50748743243315,-25.15024992318001L-131.81639318048374,79.49118946980661L-129.93757337250537,81.69721719197733z" style="fill:rgb(83,212,212)"/><path d="M-104.42255495872692,41.81025840950591L-94.75653423682834,57.6663193106226L-95.90676284568646,55.10253525392207z" style="fill:rgb(239,189,123)"/><path d="M60.51212980274337,-47.51985633161452L68.35874829841339,-30.768431469737813L62.06455799218381,-45.19927536409628z" style="fill:rgb(14,67,129)"/><path d="M98.02631474122225,-66.65379857404939L105.45432976145582,-49.69286163511065L99.65841380456133,-64.38077754867732z" style="fill:rgb(14,68,128)"/><path d="M140.36545832173903,-56.338926987543005L83.80887622159065,-80.37687989338625L86.12013176322462,-78.65900700678816zM-117.2499167549522,-27.939106780480618L-129.93757337250537,81.69721719197733L-127.93927175501923,83.83273681763151z" style="fill:rgb(83,212,212)"/><path d="M70.97734458751692,-25.804240526323287L63.455333967138706,-42.77669321470376L69.74996652689211,-28.33464087691079z" style="fill:rgb(11,74,120)"/><path d="M65.38669198137227,-90.03134973586185L66.61559228286092,-34.938959040005L67.31908898226533,-32.15181820516241z" style="fill:rgb(83,212,212)"/><path d="M108.38891867168032,-44.90141444738373L101.182924680482,-62.03369603339929L106.9759454291933,-47.33289769235672z" style="fill:rgb(12,72,122)"/><path d="M-95.90676284568646,55.10253525392207L-105.38614050816687,39.17792018299177L-104.42255495872692,41.81025840950591z" style="fill:rgb(240,185,127)"/><path d="M-103.28278949737425,44.36807972425759L-93.43322896345155,60.150602145361674L-94.75653423682834,57.6663193106226z" style="fill:rgb(236,192,119)"/><path d="M-114.9140728147366,-30.69574584641744L-127.93927175501923,83.83273681763151L-125.822533757618,85.89486277526782zM140.36545832173903,-56.338926987543005L86.12013176322462,-78.65900700678816L88.34261450802062,-76.85857599480195zM65.38669198137227,-90.03134973586185L67.31908898226533,-32.15181820516241L67.84215182876048,-29.285821072694606z" style="fill:rgb(83,212,212)"/><path d="M62.06455799218381,-45.19927536409628L69.74996652689211,-28.33464087691079L63.455333967138706,-42.77669321470376z" style="fill:rgb(13,71,125)"/><path d="M99.65841380456133,-64.38077754867732L106.9759454291933,-47.33289769235672L101.182924680482,-62.03369603339929z" style="fill:rgb(13,70,125)"/><path d="M-112.50210412758686,-33.41825397487927L-125.822533757618,85.89486277526782L-123.58854930997889,87.8807410139318z" style="fill:rgb(83,212,212)"/><path d="M109.69088117849674,-42.40016683040313L102.59735009686996,-59.614157841427726L108.38891867168032,-44.90141444738373z" style="fill:rgb(11,75,119)"/><path d="M140.36545832173903,-56.338926987543005L88.34261450802062,-76.85857599480195L90.47352398891358,-74.97652191185884z" style="fill:rgb(83,212,212)"/><path d="M-94.75653423682834,57.6663193106226L-104.42255495872692,41.81025840950591L-103.28278949737425,44.36807972425759z" style="fill:rgb(239,189,123)"/><path d="M65.38669198137227,-90.03134973586185L67.84215182876048,-29.285821072694606L68.18201882836561,-26.34643232749188z" style="fill:rgb(83,212,212)"/><path d="M-101.96759504751002,46.84541122686104L-91.93804196832451,62.54947265042701L-93.43322896345155,60.150602145361674z" style="fill:rgb(234,195,114)"/><path d="M-110.01616505881924,-36.10475448718008L-123.58854930997889,87.8807410139318L-121.238674961585,89.78755318233785zM140.36545832173903,-56.338926987543005L90.47352398891358,-74.97652191185884L92.51007098741364,-73.01385828769816z" style="fill:rgb(83,212,212)"/><path d="M63.455333967138706,-42.77669321470376L70.97734458751692,-25.804240526323287L64.68009767835201,-40.25616789826504z" style="fill:rgb(11,74,120)"/><path d="M101.182924680482,-62.03369603339929L108.38891867168032,-44.90141444738373L102.59735009686996,-59.614157841427726z" style="fill:rgb(12,72,122)"/><path d="M-107.45843104457366,-38.753409415505764L-121.238674961585,89.78755318233785L-118.77443048853635,91.61254583856083z" style="fill:rgb(83,212,212)"/><path d="M110.87951317032734,-39.831010938091474L103.899293457218,-57.123889405543316L109.69088117849674,-42.40016683040313z" style="fill:rgb(10,77,116)"/><path d="M-116.19752139032703,93.35301895400879L-107.47308589194161,22.15814552626195L-107.21319788021658,19.173799550617854z" style="fill:rgb(83,212,212)"/><path d="M-93.43322896345155,60.150602145361674L-103.28278949737425,44.36807972425759L-101.96759504751002,46.84541122686104z" style="fill:rgb(236,192,119)"/><path d="M140.36545832173903,-56.338926987543005L92.51007098741364,-73.01385828769816L94.44951098399731,-70.97169628981929zM-104.83109322394935,-41.3624166738793L-118.77443048853635,91.61254583856083L-116.19752139032703,93.35301895400879z" style="fill:rgb(83,212,212)"/><path d="M102.59735009686996,-59.614157841427726L109.69088117849674,-42.40016683040313L103.899293457218,-57.123889405543316z" style="fill:rgb(11,75,119)"/><path d="M-107.47308589194161,22.15814552626195L-113.5098014217197,95.00632204757908L-107.56158591255017,25.11035067803946z" style="fill:rgb(83,212,212)"/><path d="M111.95260452616857,-37.1959034982032L105.08643161772903,-54.564719416944634L110.87951317032734,-39.831010938091474z" style="fill:rgb(9,80,113)"/><path d="M65.38669198137227,-90.03134973586185L77.76878865562196,44.078477496608905L68.23838647416144,-88.90991475639004zM140.36545832173903,-56.338926987543005L94.44951098399731,-70.97169628981929L96.28914027721002,-68.85123371110403z" style="fill:rgb(83,212,212)"/><path d="M-91.93804196832451,62.54947265042701L-101.96759504751002,46.84541122686104L-100.47809926343318,49.2363317747055z" style="fill:rgb(234,195,114)"/><path d="M68.23838647416144,-88.90991475639004L80.59764406078483,40.848858936646955L71.02166021345286,-87.70185905311911zM-107.56158591255017,25.11035067803946L-113.5098014217197,95.00632204757908L-107.4770470279709,28.024406839785392zM140.36545832173903,-56.338926987543005L96.28914027721002,-68.85123371110403L98.02631474122225,-66.65379857404939zM71.02166021345286,-87.70185905311911L83.30960740334326,37.584094015815865L73.73355762113376,-86.4075215193303z" style="fill:rgb(83,212,212)"/><path d="M103.899293457218,-57.123889405543316L110.87951317032734,-39.831010938091474L105.08643161772903,-54.564719416944634z" style="fill:rgb(10,77,116)"/><path d="M106.1565033557083,-51.938578194344956L112.90802797142786,-34.49692126346799L111.95260452616857,-37.1959034982032z" style="fill:rgb(245,171,143)"/><path d="M73.73355762113376,-86.4075215193303L85.90192401338578,34.28838320748586L76.37114553843644,-85.02731379935392zM-107.4770470279709,28.024406839785392L-113.5098014217197,95.00632204757908L-107.21810655772789,30.89426384113498zM140.36545832173903,-56.338926987543005L98.02631474122225,-66.65379857404939L99.65841380456133,-64.38077754867732zM76.37114553843644,-85.02731379935392L88.37205263462756,30.965925716532436L78.93150728431473,-83.56174084043761z" style="fill:rgb(83,212,212)"/><path d="M-124.4973515191503,90.28981787650358L-135.21225189394835,74.87932795524641L-126.13975504530711,87.94409071318z" style="fill:rgb(24,55,146)"/><path d="M105.08643161772903,-54.564719416944634L111.95260452616857,-37.1959034982032L106.1565033557083,-51.938578194344956z" style="fill:rgb(9,80,113)"/><path d="M-107.21810655772789,30.89426384113498L-113.5098014217197,95.00632204757908L-106.78372957399816,33.713856801665635zM78.93150728431473,-83.56174084043761L90.71762717159841,27.62092354573778L81.41171154955023,-82.01137269299711z" style="fill:rgb(83,212,212)"/><path d="M107.10736365570064,-49.24751754389874L113.74373618468863,-31.73623596670009L112.90802797142786,-34.49692126346799z" style="fill:rgb(246,169,146)"/><path d="M140.36545832173903,-56.338926987543005L99.65841380456133,-64.38077754867732L101.182924680482,-62.03369603339929zM81.41171154955023,-82.01137269299711L92.93652557205148,24.257571851979982L83.80887622159065,-80.37687989338625zM83.80887622159065,-80.37687989338625L95.02682515285699,20.88004102159897L86.12013176322462,-78.65900700678816zM140.36545832173903,-56.338926987543005L101.182924680482,-62.03369603339929L102.59735009686996,-59.614157841427726z" style="fill:rgb(83,212,212)"/><path d="M-122.7356784203527,92.57156989642853L-133.57485759442054,77.21757502384636L-124.4973515191503,90.28981787650358z" style="fill:rgb(25,53,149)"/><path d="M112.90802797142786,-34.49692126346799L106.1565033557083,-51.938578194344956L107.10736365570064,-49.24751754389874z" style="fill:rgb(245,171,143)"/><path d="M86.12013176322462,-78.65900700678816L96.9867927915064,17.492478476238443L88.34261450802062,-76.85857599480195z" style="fill:rgb(83,212,212)"/><path d="M107.93693224071875,-46.49368555632147L114.45778393004241,-28.916141651999524L113.74373618468863,-31.73623596670009z" style="fill:rgb(246,166,149)"/><path d="M88.34261450802062,-76.85857599480195L98.8149392067406,14.098995691607534L90.47352398891358,-74.97652191185884zM140.36545832173903,-56.338926987543005L102.59735009686996,-59.614157841427726L103.899293457218,-57.123889405543316z" style="fill:rgb(83,212,212)"/><path d="M-135.21225189394835,74.87932795524641L-124.4973515191503,90.28981787650358L-133.57485759442054,77.21757502384636z" style="fill:rgb(24,55,146)"/><path d="M90.47352398891358,-74.97652191185884L100.50995816995074,10.703664771462392L92.51007098741364,-73.01385828769816z" style="fill:rgb(83,212,212)"/><path d="M-120.85547591864092,94.78640081975935L-131.81639318048374,79.49118946980661L-122.7356784203527,92.57156989642853z" style="fill:rgb(28,51,152)"/><path d="M113.74373618468863,-31.73623596670009L107.10736365570064,-49.24751754389874L107.93693224071875,-46.49368555632147z" style="fill:rgb(246,169,146)"/><path d="M108.64326441112577,-43.679354095363514L115.04834941295644,-26.03903093245926L114.45778393004241,-28.916141651999524z" style="fill:rgb(247,163,152)"/><path d="M140.36545832173903,-56.338926987543005L103.899293457218,-57.123889405543316L105.08643161772903,-54.564719416944634zM92.51007098741364,-73.01385828769816L102.07075872072005,7.3105068814302205L94.44951098399731,-70.97169628981929zM94.44951098399731,-70.97169628981929L103.49644759871919,3.923490350258108L96.28914027721002,-68.85123371110403z" style="fill:rgb(83,212,212)"/><path d="M-133.57485759442054,77.21757502384636L-122.7356784203527,92.57156989642853L-131.81639318048374,79.49118946980661z" style="fill:rgb(25,53,149)"/><path d="M-106.78372957399816,33.713856801665635L-94.34563786204835,105.7857849462444L-106.17319436143481,36.47709914728871zM140.36545832173903,-56.338926987543005L105.08643161772903,-54.564719416944634L106.1565033557083,-51.938578194344956z" style="fill:rgb(83,212,212)"/><path d="M-118.85767230454034,96.93139645293486L-129.93757337250537,81.69721719197733L-120.85547591864092,94.78640081975935z" style="fill:rgb(30,49,154)"/><path d="M96.28914027721002,-68.85123371110403L104.78634588956865,0.5465199917054484L98.02631474122225,-66.65379857404939z" style="fill:rgb(83,212,212)"/><path d="M114.45778393004241,-28.916141651999524L107.93693224071875,-46.49368555632147L108.64326441112577,-43.679354095363514z" style="fill:rgb(246,166,149)"/><path d="M109.22449198926603,-40.80689327560247L115.51370038685674,-23.107409895545626L115.04834941295644,-26.03903093245926z" style="fill:rgb(247,161,155)"/><path d="M98.02631474122225,-66.65379857404939L105.93993937627012,-2.816565799879674L99.65841380456133,-64.38077754867732zM-106.17319436143481,36.47709914728871L-94.34563786204835,105.7857849462444L-105.38614050816687,39.17792018299177zM140.36545832173903,-56.338926987543005L106.1565033557083,-51.938578194344956L107.10736365570064,-49.24751754389874zM99.65841380456133,-64.38077754867732L106.9569615104213,-6.16200239734665L101.182924680482,-62.03369603339929z" style="fill:rgb(83,212,212)"/><path d="M-131.81639318048374,79.49118946980661L-120.85547591864092,94.78640081975935L-129.93757337250537,81.69721719197733z" style="fill:rgb(28,51,152)"/><path d="M-116.74331689828777,99.00367854873862L-127.93927175501923,83.83273681763151L-118.85767230454034,96.93139645293486z" style="fill:rgb(32,48,157)"/><path d="M115.04834941295644,-26.03903093245926L108.64326441112577,-43.679354095363514L109.22449198926603,-40.80689327560247z" style="fill:rgb(247,163,152)"/><path d="M101.182924680482,-62.03369603339929L107.83728105096888,-9.486103474270047L102.59735009686996,-59.614157841427726zM-105.38614050816687,39.17792018299177L-94.34563786204835,105.7857849462444L-104.42255495872692,41.81025840950591zM140.36545832173903,-56.338926987543005L107.10736365570064,-49.24751754389874L107.93693224071875,-46.49368555632147zM102.59735009686996,-59.614157841427726L108.58098606893175,-12.7852638926422L103.899293457218,-57.123889405543316z" style="fill:rgb(83,212,212)"/><path d="M115.51370038685674,-23.107409895545626L110.0047824917627,-34.89765638055264L115.85224045798428,-20.123894210648075z" style="fill:rgb(247,158,158)"/><path d="M103.899293457218,-57.123889405543316L109.18834135808578,-16.055968957994704L105.08643161772903,-54.564719416944634z" style="fill:rgb(83,212,212)"/><path d="M-129.93757337250537,81.69721719197733L-118.85767230454034,96.93139645293486L-127.93927175501923,83.83273681763151z" style="fill:rgb(30,49,154)"/><path d="M-104.42255495872692,41.81025840950591L-94.34563786204835,105.7857849462444L-103.28278949737425,44.36807972425759zM-107.47308589194161,22.15814552626195L-116.19752139032703,93.35301895400879L-113.5098014217197,95.00632204757908zM140.36545832173903,-56.338926987543005L107.93693224071875,-46.49368555632147L108.64326441112577,-43.679354095363514z" style="fill:rgb(83,212,212)"/><path d="M-114.51363375957291,101.00040007256526L-125.822533757618,85.89486277526782L-116.74331689828777,99.00367854873862z" style="fill:rgb(34,46,160)"/><path d="M115.51370038685674,-23.107409895545626L109.22449198926603,-40.80689327560247L109.6788699065762,-37.87879448933866z" style="fill:rgb(247,161,155)"/><path d="M65.38669198137227,-90.03134973586185L68.18201882836561,-26.34643232749188L74.82601337278139,47.268768876094434zM105.08643161772903,-54.564719416944634L109.65976526733162,-19.294793568446032L106.1565033557083,-51.938578194344956z" style="fill:rgb(83,212,212)"/><path d="M115.85224045798428,-20.123894210648075L110.2007345141779,-31.86617695952923L116.06249134488411,-17.091202038843708z" style="fill:rgb(247,155,161)"/><path d="M106.1565033557083,-51.938578194344956L109.99587625443462,-22.49840779745153L107.10736365570064,-49.24751754389874zM-103.28278949737425,44.36807972425759L-94.34563786204835,105.7857849462444L-101.96759504751002,46.84541122686104zM140.36545832173903,-56.338926987543005L108.64326441112577,-43.679354095363514L109.22449198926603,-40.80689327560247z" style="fill:rgb(83,212,212)"/><path d="M110.0047824917627,-34.89765638055264L115.51370038685674,-23.107409895545626L109.6788699065762,-37.87879448933866z" style="fill:rgb(247,158,158)"/><path d="M-127.93927175501923,83.83273681763151L-116.74331689828777,99.00367854873862L-125.822533757618,85.89486277526782z" style="fill:rgb(32,48,157)"/><path d="M107.10736365570064,-49.24751754389874L110.1974244892256,-25.663578655833824L107.93693224071875,-46.49368555632147z" style="fill:rgb(83,212,212)"/><path d="M-112.16999447497342,102.91874944263877L-123.58854930997889,87.8807410139318L-114.51363375957291,101.00040007256526z" style="fill:rgb(37,45,163)"/><path d="M-101.96759504751002,46.84541122686104L-94.34563786204835,105.7857849462444L-100.47809926343318,49.2363317747055zM107.93693224071875,-46.49368555632147L110.26535569663487,-28.787177760047683L108.64326441112577,-43.679354095363514zM140.36545832173903,-56.338926987543005L109.22449198926603,-40.80689327560247L109.6788699065762,-37.87879448933866z" style="fill:rgb(83,212,212)"/><path d="M146.95330107825512,-49.856201237954785L153.27321411857793,-31.99624921002662L152.31375070356754,-34.820731436353945z" style="fill:rgb(246,168,147)"/><path d="M116.06249134488411,-17.091202038843708L110.26535569663487,-28.787177760047683L116.14309830871268,-14.012163855001063z" style="fill:rgb(247,152,163)"/><path d="M108.64326441112577,-43.679354095363514L110.2007345141779,-31.86617695952923L109.22449198926603,-40.80689327560247z" style="fill:rgb(83,212,212)"/><path d="M110.2007345141779,-31.86617695952923L115.85224045798428,-20.123894210648075L110.0047824917627,-34.89765638055264z" style="fill:rgb(247,155,161)"/><path d="M-125.822533757618,85.89486277526782L-114.51363375957291,101.00040007256526L-123.58854930997889,87.8807410139318z" style="fill:rgb(34,46,160)"/><path d="M-100.47809926343318,49.2363317747055L-94.34563786204835,105.7857849462444L-98.81584898790788,51.53501236718652z" style="fill:rgb(83,212,212)"/><path d="M-109.71396410891647,104.7559793118524L-121.238674961585,89.78755318233785L-112.16999447497342,102.91874944263877z" style="fill:rgb(39,43,166)"/><path d="M109.22449198926603,-40.80689327560247L110.0047824917627,-34.89765638055264L109.6788699065762,-37.87879448933866zM140.36545832173903,-56.338926987543005L109.6788699065762,-37.87879448933866L110.0047824917627,-34.89765638055264z" style="fill:rgb(83,212,212)"/><path d="M116.14309830871268,-14.012163855001063L110.1974244892256,-25.663578655833824L116.09286185400939,-10.889711719726638z" style="fill:rgb(246,149,166)"/><path d="M153.27321411857793,-31.99624921002662L148.03138588025766,-45.674719700934745L153.40038582040322,-30.63128334699324z" style="fill:rgb(247,154,161)"/><path d="M-98.81584898790788,51.53501236718652L-94.34563786204835,105.7857849462444L-96.98280339641603,53.735721060736886zM109.22449198926603,-40.80689327560247L110.2007345141779,-31.86617695952923L110.0047824917627,-34.89765638055264z" style="fill:rgb(83,212,212)"/><path d="M110.26535569663487,-28.787177760047683L116.06249134488411,-17.091202038843708L110.2007345141779,-31.86617695952923z" style="fill:rgb(247,152,163)"/><path d="M-123.58854930997889,87.8807410139318L-112.16999447497342,102.91874944263877L-121.238674961585,89.78755318233785z" style="fill:rgb(37,45,163)"/><path d="M-107.14724072488714,106.50939530630004L-118.77443048853635,91.61254583856083L-109.71396410891647,104.7559793118524z" style="fill:rgb(42,42,168)"/><path d="M108.64326441112577,-43.679354095363514L110.26535569663487,-28.787177760047683L110.2007345141779,-31.86617695952923z" style="fill:rgb(83,212,212)"/><path d="M153.40038582040322,-30.63128334699324L148.18049770305862,-44.00473882797342L153.55607743791415,-28.960263965610448z" style="fill:rgb(247,154,161)"/><path d="M-96.98280339641603,53.735721060736886L-94.34563786204835,105.7857849462444L-94.98134340617598,55.83284546625885zM107.93693224071875,-46.49368555632147L110.1974244892256,-25.663578655833824L110.26535569663487,-28.787177760047683z" style="fill:rgb(83,212,212)"/><path d="M153.27321411857793,-31.99624921002662L146.95330107825512,-49.856201237954785L147.90956399987718,-47.038783170099386z" style="fill:rgb(246,168,147)"/><path d="M116.09286185400939,-10.889711719726638L109.99587625443462,-22.49840779745153L115.91070327589863,-7.726881448347146z" style="fill:rgb(246,146,169)"/><path d="M107.10736365570064,-49.24751754389874L109.99587625443462,-22.49840779745153L110.1974244892256,-25.663578655833824z" style="fill:rgb(83,212,212)"/><path d="M110.1974244892256,-25.663578655833824L116.14309830871268,-14.012163855001063L110.26535569663487,-28.787177760047683z" style="fill:rgb(246,149,166)"/><path d="M-106.78372957399816,33.713856801665635L-113.5098014217197,95.00632204757908L-94.34563786204835,105.7857849462444z" style="fill:rgb(83,212,212)"/><path d="M153.55607743791415,-28.960263965610448L147.7528544149408,-40.8327456299274L153.14893850056944,-25.79155409938465z" style="fill:rgb(244,139,175)"/><path d="M-121.238674961585,89.78755318233785L-109.71396410891647,104.7559793118524L-118.77443048853635,91.61254583856083z" style="fill:rgb(39,43,166)"/><path d="M-104.47170082258404,108.1763521875957L-116.19752139032703,93.35301895400879L-107.14724072488714,106.50939530630004z" style="fill:rgb(44,40,171)"/><path d="M148.03138588025766,-45.674719700934745L153.27321411857793,-31.99624921002662L147.90956399987718,-47.038783170099386z" style="fill:rgb(247,154,161)"/><path d="M106.1565033557083,-51.938578194344956L109.65976526733162,-19.294793568446032L109.99587625443462,-22.49840779745153zM-94.98134340617598,55.83284546625885L-94.34563786204835,105.7857849462444L-92.81428868167119,57.820916405455606zM140.36545832173903,-56.338926987543005L144.8440752276715,-34.41295922057322L143.12619387839575,-54.56389283924578zM105.08643161772903,-54.564719416944634L109.18834135808578,-16.055968957994704L109.65976526733162,-19.294793568446032z" style="fill:rgb(83,212,212)"/><path d="M148.18049770305862,-44.00473882797342L153.40038582040322,-30.63128334699324L148.03138588025766,-45.674719700934745z" style="fill:rgb(247,154,161)"/><path d="M115.91070327589863,-7.726881448347146L109.65976526733162,-19.294793568446032L115.59571067749998,-4.526810727340447z" style="fill:rgb(245,144,171)"/><path d="M153.14893850056944,-25.79155409938465L147.10925285541936,-38.979746792508436L152.5218329263554,-23.9433716723164z" style="fill:rgb(239,124,188)"/><path d="M143.12619387839575,-54.56389283924578L146.63233257678905,-37.60661463113119L145.34291923532479,-52.38547173287508zM103.899293457218,-57.123889405543316L108.58098606893175,-12.7852638926422L109.18834135808578,-16.055968957994704zM140.36545832173903,-56.338926987543005L110.0047824917627,-34.89765638055264L142.4324212038358,-31.338637406792166zM-92.81428868167119,57.820916405455606L-94.34563786204835,105.7857849462444L-90.4848799574548,59.69462372288515z" style="fill:rgb(83,212,212)"/><path d="M109.99587625443462,-22.49840779745153L116.09286185400939,-10.889711719726638L110.1974244892256,-25.663578655833824z" style="fill:rgb(246,146,169)"/><path d="M102.59735009686996,-59.614157841427726L107.83728105096888,-9.486103474270047L108.58098606893175,-12.7852638926422z" style="fill:rgb(83,212,212)"/><path d="M152.5218329263554,-23.9433716723164L146.63233257678905,-37.60661463113119L152.05714015944508,-22.573857556073403z" style="fill:rgb(239,124,188)"/><path d="M-118.77443048853635,91.61254583856083L-107.14724072488714,106.50939530630004L-116.19752139032703,93.35301895400879z" style="fill:rgb(42,42,168)"/><path d="M145.34291923532479,-52.38547173287508L147.7528544149408,-40.8327456299274L146.95330107825512,-49.856201237954785z" style="fill:rgb(83,212,212)"/><path d="M147.7528544149408,-40.8327456299274L153.55607743791415,-28.960263965610448L148.18049770305862,-44.00473882797342z" style="fill:rgb(244,139,175)"/><path d="M101.182924680482,-62.03369603339929L106.9569615104213,-6.16200239734665L107.83728105096888,-9.486103474270047zM-90.4848799574548,59.69462372288515L-94.34563786204835,105.7857849462444L-87.99684505155565,61.44883018078431zM146.95330107825512,-49.856201237954785L148.18049770305862,-44.00473882797342L147.90956399987718,-47.038783170099386z" style="fill:rgb(83,212,212)"/><path d="M115.59571067749998,-4.526810727340447L109.18834135808578,-16.055968957994704L115.14713163484582,-1.2927346178702877z" style="fill:rgb(245,141,174)"/><path d="M99.65841380456133,-64.38077754867732L105.93993937627012,-2.816565799879674L106.9569615104213,-6.16200239734665z" style="fill:rgb(83,212,212)"/><path d="M152.05714015944508,-22.573857556073403L144.8440752276715,-34.41295922057322L150.30511541844015,-19.393553121468678z" style="fill:rgb(231,109,199)"/><path d="M110.2007345141779,-31.86617695952923L142.4324212038358,-31.338637406792166L110.0047824917627,-34.89765638055264zM98.02631474122225,-66.65379857404939L104.78634588956865,0.5465199917054484L105.93993937627012,-2.816565799879674z" style="fill:rgb(83,212,212)"/><path d="M109.65976526733162,-19.294793568446032L115.91070327589863,-7.726881448347146L109.99587625443462,-22.49840779745153z" style="fill:rgb(245,144,171)"/><path d="M-116.19752139032703,93.35301895400879L-104.47170082258404,108.1763521875957L-113.5098014217197,95.00632204757908z" style="fill:rgb(44,40,171)"/><path d="M147.10925285541936,-38.979746792508436L153.14893850056944,-25.79155409938465L147.7528544149408,-40.8327456299274z" style="fill:rgb(239,124,188)"/><path d="M96.28914027721002,-68.85123371110403L103.49644759871919,3.923490350258108L104.78634588956865,0.5465199917054484zM-87.99684505155565,61.44883018078431L-94.34563786204835,105.7857849462444L-85.35430450613576,63.07861762424509zM146.95330107825512,-49.856201237954785L147.7528544149408,-40.8327456299274L148.18049770305862,-44.00473882797342z" style="fill:rgb(83,212,212)"/><path d="M150.30511541844015,-19.393553121468678L142.4324212038358,-31.338637406792166L147.9363120289721,-16.337109292930545z" style="fill:rgb(220,94,208)"/><path d="M94.44951098399731,-70.97169628981929L102.07075872072005,7.3105068814302205L103.49644759871919,3.923490350258108zM110.26535569663487,-28.787177760047683L142.4324212038358,-31.338637406792166L110.2007345141779,-31.86617695952923zM145.34291923532479,-52.38547173287508L146.63233257678905,-37.60661463113119L147.7528544149408,-40.8327456299274z" style="fill:rgb(83,212,212)"/><path d="M115.14713163484582,-1.2927346178702877L108.58098606893175,-12.7852638926422L114.564359771513,1.9720144601892189z" style="fill:rgb(244,138,177)"/><path d="M146.63233257678905,-37.60661463113119L152.5218329263554,-23.9433716723164L147.10925285541936,-38.979746792508436z" style="fill:rgb(239,124,188)"/><path d="M92.51007098741364,-73.01385828769816L100.50995816995074,10.703664771462392L102.07075872072005,7.3105068814302205zM143.12619387839575,-54.56389283924578L144.8440752276715,-34.41295922057322L146.63233257678905,-37.60661463113119zM140.36545832173903,-56.338926987543005L142.4324212038358,-31.338637406792166L144.8440752276715,-34.41295922057322zM-85.35430450613576,63.07861762424509L-94.34563786204835,105.7857849462444L-82.56188480131905,64.57927758887737z" style="fill:rgb(83,212,212)"/><path d="M147.9363120289721,-16.337109292930545L139.9759555047239,-28.47089545333046L145.5222777526052,-13.487626276795877z" style="fill:rgb(216,90,210)"/><path d="M90.47352398891358,-74.97652191185884L98.8149392067406,14.098995691607534L100.50995816995074,10.703664771462392z" style="fill:rgb(83,212,212)"/><path d="M109.18834135808578,-16.055968957994704L115.59571067749998,-4.526810727340447L109.65976526733162,-19.294793568446032z" style="fill:rgb(245,141,174)"/><path d="M-85.40855778179993,119.05167826612302L-113.5098014217197,95.00632204757908L-104.47170082258404,108.1763521875957z" style="fill:rgb(47,39,173)"/><path d="M144.8440752276715,-34.41295922057322L152.05714015944508,-22.573857556073403L146.63233257678905,-37.60661463113119z" style="fill:rgb(231,109,199)"/><path d="M88.34261450802062,-76.85857599480195L96.9867927915064,17.492478476238443L98.8149392067406,14.098995691607534zM110.1974244892256,-25.663578655833824L142.4324212038358,-31.338637406792166L110.26535569663487,-28.787177760047683zM86.12013176322462,-78.65900700678816L95.02682515285699,20.88004102159897L96.9867927915064,17.492478476238443zM-82.56188480131905,64.57927758887737L-94.34563786204835,105.7857849462444L-79.62461331496385,65.9463467148531zM83.80887622159065,-80.37687989338625L92.93652557205148,24.257571851979982L95.02682515285699,20.88004102159897z" style="fill:rgb(83,212,212)"/><path d="M114.564359771513,1.9720144601892189L107.83728105096888,-9.486103474270047L113.84695216900688,5.264012579394957z" style="fill:rgb(243,135,179)"/><path d="M81.41171154955023,-82.01137269299711L90.71762717159841,27.62092354573778L92.93652557205148,24.257571851979982zM68.33631418947049,-23.339391835543168L74.82601337278139,47.268768876094434L68.18201882836561,-26.34643232749188zM109.99587625443462,-22.49840779745153L142.4324212038358,-31.338637406792166L110.1974244892256,-25.663578655833824z" style="fill:rgb(83,212,212)"/><path d="M142.4324212038358,-31.338637406792166L150.30511541844015,-19.393553121468678L144.8440752276715,-34.41295922057322z" style="fill:rgb(220,94,208)"/><path d="M78.93150728431473,-83.56174084043761L88.37205263462756,30.965925716532436L90.71762717159841,27.62092354573778z" style="fill:rgb(83,212,212)"/><path d="M-94.34563786204835,105.7857849462444L-61.86185307786686,82.61471171712437L-70.27035837178968,69.1294719852371z" style="fill:rgb(231,109,199)"/><path d="M108.58098606893175,-12.7852638926422L115.14713163484582,-1.2927346178702877L109.18834135808578,-16.055968957994704z" style="fill:rgb(244,138,177)"/><path d="M76.37114553843644,-85.02731379935392L85.90192401338578,34.28838320748586L88.37205263462756,30.965925716532436zM-79.62461331496385,65.9463467148531L-94.34563786204835,105.7857849462444L-76.54798653711201,67.17563918680962zM73.73355762113376,-86.4075215193303L83.30960740334326,37.584094015815865L85.90192401338578,34.28838320748586zM71.02166021345286,-87.70185905311911L80.59764406078483,40.848858936646955L83.30960740334326,37.584094015815865z" style="fill:rgb(83,212,212)"/><path d="M139.9759555047239,-28.47089545333046L147.9363120289721,-16.337109292930545L142.4324212038358,-31.338637406792166z" style="fill:rgb(216,90,210)"/><path d="M68.3030598975106,-20.270695347005603L74.82601337278139,47.268768876094434L68.33631418947049,-23.339391835543168zM68.23838647416144,-88.90991475639004L77.76878865562196,44.078477496608905L80.59764406078483,40.848858936646955z" style="fill:rgb(83,212,212)"/><path d="M145.5222777526052,-13.487626276795877L130.28096037249978,-17.15270221101483L135.9957171388186,-2.2426488548263426z" style="fill:rgb(216,90,210)"/><path d="M113.84695216900688,5.264012579394957L106.9569615104213,-6.16200239734665L112.99466697543431,8.579746494870028z" style="fill:rgb(242,132,182)"/><path d="M109.65976526733162,-19.294793568446032L142.4324212038358,-31.338637406792166L109.99587625443462,-22.49840779745153zM65.38669198137227,-90.03134973586185L74.82601337278139,47.268768876094434L77.76878865562196,44.078477496608905zM-76.54798653711201,67.17563918680962L-94.34563786204835,105.7857849462444L-73.33795464905378,68.26324684851285z" style="fill:rgb(83,212,212)"/><path d="M-61.86185307786686,82.61471171712437L-94.34563786204835,105.7857849462444L-85.40855778179993,119.05167826612302z" style="fill:rgb(231,109,199)"/><path d="M107.83728105096888,-9.486103474270047L114.564359771513,1.9720144601892189L108.58098606893175,-12.7852638926422z" style="fill:rgb(243,135,179)"/><path d="M68.0806937225332,-17.14659576375802L74.82601337278139,47.268768876094434L68.3030598975106,-20.270695347005603zM109.18834135808578,-16.055968957994704L142.4324212038358,-31.338637406792166L109.65976526733162,-19.294793568446032zM-73.33795464905378,68.26324684851285L-94.34563786204835,105.7857849462444L-70.27035837178968,69.1294719852371z" style="fill:rgb(83,212,212)"/><path d="M112.99466697543431,8.579746494870028L105.93993937627012,-2.816565799879674L112.0074113990111,11.915618743700948z" style="fill:rgb(241,129,184)"/><path d="M130.28096037249978,-17.15270221101483L145.5222777526052,-13.487626276795877L139.9759555047239,-28.47089545333046z" style="fill:rgb(216,90,210)"/><path d="M67.66808906226602,-13.973583056903205L74.82601337278139,47.268768876094434L68.0806937225332,-17.14659576375802zM108.58098606893175,-12.7852638926422L142.4324212038358,-31.338637406792166L109.18834135808578,-16.055968957994704z" style="fill:rgb(83,212,212)"/><path d="M106.9569615104213,-6.16200239734665L113.84695216900688,5.264012579394957L107.83728105096888,-9.486103474270047z" style="fill:rgb(242,132,182)"/><path d="M135.9957171388186,-2.2426488548263426L122.06546665924964,-7.561729339816468L127.92417933417343,7.284844334958269z" style="fill:rgb(216,90,210)"/><path d="M112.0074113990111,11.915618743700948L104.78634588956865,0.5465199917054484L110.88528117380362,15.267948967645236z" style="fill:rgb(240,126,186)"/><path d="M107.83728105096888,-9.486103474270047L142.4324212038358,-31.338637406792166L108.58098606893175,-12.7852638926422zM67.06457724343869,-10.758377689268801L71.77247813707474,50.41557891215647L67.66808906226602,-13.973583056903205z" style="fill:rgb(83,212,212)"/><path d="M105.93993937627012,-2.816565799879674L112.99466697543431,8.579746494870028L106.9569615104213,-6.16200239734665z" style="fill:rgb(241,129,184)"/><path d="M-113.5098014217197,95.00632204757908L-85.40855778179993,119.05167826612302L-94.34563786204835,105.7857849462444z" style="fill:rgb(47,39,173)"/><path d="M106.9569615104213,-6.16200239734665L142.4324212038358,-31.338637406792166L107.83728105096888,-9.486103474270047zM66.26995345700418,-7.50791501511297L71.77247813707474,50.41557891215647L67.06457724343869,-10.758377689268801z" style="fill:rgb(83,212,212)"/><path d="M110.88528117380362,15.267948967645236L103.49644759871919,3.923490350258108L109.62856643335388,18.6329856748744z" style="fill:rgb(239,123,189)"/><path d="M122.06546665924964,-7.561729339816468L135.9957171388186,-2.2426488548263426L130.28096037249978,-17.15270221101483z" style="fill:rgb(216,90,210)"/><path d="M104.78634588956865,0.5465199917054484L112.0074113990111,11.915618743700948L105.93993937627012,-2.816565799879674z" style="fill:rgb(240,126,186)"/><path d="M105.93993937627012,-2.816565799879674L142.4324212038358,-31.338637406792166L106.9569615104213,-6.16200239734665zM65.28450234385608,-4.22932855343548L71.77247813707474,50.41557891215647L66.26995345700418,-7.50791501511297z" style="fill:rgb(83,212,212)"/><path d="M127.92417933417343,7.284844334958269L114.93176514039334,0.7663307018819205L120.91639239477294,15.556713336949016z" style="fill:rgb(216,90,210)"/><path d="M109.62856643335388,18.6329856748744L102.07075872072005,7.3105068814302205L108.23773990360952,22.006901974762688z" style="fill:rgb(237,120,191)"/><path d="M104.78634588956865,0.5465199917054484L142.4324212038358,-31.338637406792166L105.93993937627012,-2.816565799879674zM64.10899857254728,-0.9299346265537912L71.77247813707474,50.41557891215647L65.28450234385608,-4.22932855343548z" style="fill:rgb(83,212,212)"/><path d="M103.49644759871919,3.923490350258108L110.88528117380362,15.267948967645236L104.78634588956865,0.5465199917054484z" style="fill:rgb(239,123,189)"/><path d="M108.23773990360952,22.006901974762688L100.50995816995074,10.703664771462392L106.71347058808122,25.385808649453z" style="fill:rgb(236,117,193)"/><path d="M103.49644759871919,3.923490350258108L142.4324212038358,-31.338637406792166L104.78634588956865,0.5465199917054484zM62.74472292594374,2.3827879564040444L71.77247813707474,50.41557891215647L64.10899857254728,-0.9299346265537912z" style="fill:rgb(83,212,212)"/><path d="M114.93176514039334,0.7663307018819205L127.92417933417343,7.284844334958269L122.06546665924964,-7.561729339816468zM120.91639239477294,15.556713336949016L108.60978198676086,8.146781794548765L114.70668534777077,22.88653744740112z" style="fill:rgb(216,90,210)"/><path d="M102.07075872072005,7.3105068814302205L109.62856643335388,18.6329856748744L103.49644759871919,3.923490350258108z" style="fill:rgb(237,120,191)"/><path d="M102.07075872072005,7.3105068814302205L142.4324212038358,-31.338637406792166L103.49644759871919,3.923490350258108zM61.19347576593402,5.701218368735652L71.77247813707474,50.41557891215647L62.74472292594374,2.3827879564040444z" style="fill:rgb(83,212,212)"/><path d="M106.71347058808122,25.385808649453L98.8149392067406,14.098995691607534L105.05662744010928,28.765757795178256z" style="fill:rgb(234,114,195)"/><path d="M59.45757441350916,9.01761434347736L71.77247813707474,50.41557891215647L61.19347576593402,5.701218368735652zM100.50995816995074,10.703664771462392L142.4324212038358,-31.338637406792166L102.07075872072005,7.3105068814302205z" style="fill:rgb(83,212,212)"/><path d="M100.50995816995074,10.703664771462392L108.23773990360952,22.006901974762688L102.07075872072005,7.3105068814302205z" style="fill:rgb(236,117,193)"/><path d="M114.70668534777077,22.88653744740112L102.90930739716097,14.801656410885542L109.10802337080791,29.4950912225698z" style="fill:rgb(216,90,210)"/><path d="M105.05662744010928,28.765757795178256L96.9867927915064,17.492478476238443L103.2682776431345,32.14274978385726z" style="fill:rgb(232,111,197)"/><path d="M108.60978198676086,8.146781794548765L120.91639239477294,15.556713336949016L114.93176514039334,0.7663307018819205z" style="fill:rgb(216,90,210)"/><path d="M57.539877743661776,12.324138235448752L71.77247813707474,50.41557891215647L59.45757441350916,9.01761434347736zM98.8149392067406,14.098995691607534L142.4324212038358,-31.338637406792166L100.50995816995074,10.703664771462392zM55.443753447583155,15.612878129280478L71.77247813707474,50.41557891215647L57.539877743661776,12.324138235448752z" style="fill:rgb(83,212,212)"/><path d="M98.8149392067406,14.098995691607534L106.71347058808122,25.385808649453L100.50995816995074,10.703664771462392z" style="fill:rgb(234,114,195)"/><path d="M96.9867927915064,17.492478476238443L142.4324212038358,-31.338637406792166L98.8149392067406,14.098995691607534z" style="fill:rgb(83,212,212)"/><path d="M103.2682776431345,32.14274978385726L95.02682515285699,20.88004102159897L101.3496873636797,35.512733801511395z" style="fill:rgb(230,108,199)"/><path d="M53.17312045490521,18.875877501485395L71.77247813707474,50.41557891215647L55.443753447583155,15.612878129280478z" style="fill:rgb(83,212,212)"/><path d="M109.10802337080791,29.4950912225698L97.6922343037733,20.892203967572787L103.98460042546503,35.54269019973427z" style="fill:rgb(216,90,210)"/><path d="M95.02682515285699,20.88004102159897L142.4324212038358,-31.338637406792166L96.9867927915064,17.492478476238443z" style="fill:rgb(83,212,212)"/><path d="M102.90930739716097,14.801656410885542L114.70668534777077,22.88653744740112L108.60978198676086,8.146781794548765z" style="fill:rgb(216,90,210)"/><path d="M96.9867927915064,17.492478476238443L105.05662744010928,28.765757795178256L98.8149392067406,14.098995691607534z" style="fill:rgb(232,111,197)"/><path d="M50.732408902808295,22.105158199410543L71.77247813707474,50.41557891215647L53.17312045490521,18.875877501485395z" style="fill:rgb(83,212,212)"/><path d="M101.3496873636797,35.512733801511395L92.93652557205148,24.257571851979982L99.30232858142335,38.87162546651994z" style="fill:rgb(229,105,201)"/><path d="M-66.8420157372797,69.93081193111543L-44.078468355208884,134.0600500562751L-66.54355939237357,69.99933415146495zM92.93652557205148,24.257571851979982L142.4324212038358,-31.338637406792166L95.02682515285699,20.88004102159897zM-66.54355939237357,69.99933415146495L-44.078468355208884,134.0600500562751L-62.97320735631687,70.64162417520978zM48.12657682538569,25.292754897400908L71.77247813707474,50.41557891215647L50.732408902808295,22.105158199410543z" style="fill:rgb(83,212,212)"/><path d="M103.98460042546503,35.54269019973427L92.8555054813852,26.538719342291515L99.2351051528974,41.14891123111001z" style="fill:rgb(216,90,210)"/><path d="M90.71762717159841,27.62092354573778L142.4324212038358,-31.338637406792166L92.93652557205148,24.257571851979982z" style="fill:rgb(83,212,212)"/><path d="M99.30232858142335,38.87162546651994L90.71762717159841,27.62092354573778L97.12788897061637,42.215306242876885z" style="fill:rgb(226,102,203)"/><path d="M95.02682515285699,20.88004102159897L103.2682776431345,32.14274978385726L96.9867927915064,17.492478476238443z" style="fill:rgb(230,108,199)"/><path d="M45.36109183112401,28.43073174195447L71.77247813707474,50.41557891215647L48.12657682538569,25.292754897400908zM-62.97320735631687,70.64162417520978L-44.078468355208884,134.0600500562751L-59.29743854876645,71.12987310641442z" style="fill:rgb(83,212,212)"/><path d="M97.6922343037733,20.892203967572787L109.10802337080791,29.4950912225698L102.90930739716097,14.801656410885542z" style="fill:rgb(216,90,210)"/><path d="M42.44192623461982,31.511229005425538L71.77247813707474,50.41557891215647L45.36109183112401,28.43073174195447zM88.37205263462756,30.965925716532436L142.4324212038358,-31.338637406792166L90.71762717159841,27.62092354573778zM67.66808906226602,-13.973583056903205L71.77247813707474,50.41557891215647L74.82601337278139,47.268768876094434zM-59.29743854876645,71.12987310641442L-44.078468355208884,134.0600500562751L-55.524246510250784,71.46191207382114z" style="fill:rgb(83,212,212)"/><path d="M97.12788897061637,42.215306242876885L88.37205263462756,30.965925716532436L94.8282491251961,45.53963442441594z" style="fill:rgb(224,100,205)"/><path d="M39.37554685259869,34.52647341486843L71.77247813707474,50.41557891215647L42.44192623461982,31.511229005425538z" style="fill:rgb(83,212,212)"/><path d="M92.93652557205148,24.257571851979982L101.3496873636797,35.512733801511395L95.02682515285699,20.88004102159897z" style="fill:rgb(229,105,201)"/><path d="M99.2351051528974,41.14891123111001L88.32040945193383,31.83310506066961L94.78214599648389,46.40510241825488z" style="fill:rgb(216,90,210)"/><path d="M85.90192401338578,34.28838320748586L142.4324212038358,-31.338637406792166L88.37205263462756,30.965925716532436zM36.168877221826534,37.46882156353644L71.77247813707474,50.41557891215647L39.37554685259869,34.52647341486843zM-55.524246510250784,71.46191207382114L-44.078468355208884,134.0600500562751L-51.66199264288095,71.63595588230686z" style="fill:rgb(83,212,212)"/><path d="M-35.454594178957855,147.54990215053238L-91.39108741505804,107.44765744216464L-82.47048509603677,120.72782373120418z" style="fill:rgb(47,39,173)"/><path d="M32.82930239111844,40.330790787523064L71.77247813707474,50.41557891215647L36.168877221826534,37.46882156353644z" style="fill:rgb(83,212,212)"/><path d="M92.8555054813852,26.538719342291515L103.98460042546503,35.54269019973427L97.6922343037733,20.892203967572787z" style="fill:rgb(216,90,210)"/><path d="M83.30960740334326,37.584094015815865L142.4324212038358,-31.338637406792166L85.90192401338578,34.28838320748586z" style="fill:rgb(83,212,212)"/><path d="M94.8282491251961,45.53963442441594L85.90192401338578,34.28838320748586L92.40549433226087,48.84045259186188z" style="fill:rgb(222,97,206)"/><path d="M90.71762717159841,27.62092354573778L99.30232858142335,38.87162546651994L92.93652557205148,24.257571851979982z" style="fill:rgb(226,102,203)"/><path d="M29.36463834288106,43.10506910413997L71.77247813707474,50.41557891215647L32.82930239111844,40.330790787523064zM-51.66199264288095,71.63595588230686L-44.078468355208884,134.0600500562751L-47.71938495285627,71.65065198713388zM25.783102136199062,45.784575915625204L71.77247813707474,50.41557891215647L29.36463834288106,43.10506910413997zM142.4324212038358,-31.338637406792166L83.30960740334326,37.584094015815865L80.59764406078483,40.848858936646955z" style="fill:rgb(83,212,212)"/><path d="M94.78214599648389,46.40510241825488L84.02547055974125,36.847127394282495L90.56529942965646,51.38258481785417z" style="fill:rgb(216,90,210)"/><path d="M22.09329162417878,48.36245328842104L71.77247813707474,50.41557891215647L25.783102136199062,45.784575915625204z" style="fill:rgb(83,212,212)"/><path d="M92.40549433226087,48.84045259186188L83.30960740334326,37.584094015815865L89.86191493313756,52.11359425812125z" style="fill:rgb(220,94,208)"/><path d="M-44.078468355208884,134.0600500562751L-66.8420157372797,69.93081193111543L-91.39108741505804,107.44765744216464zM18.304152962823743,50.83213122797176L71.77247813707474,50.41557891215647L22.09329162417878,48.36245328842104zM-47.71938495285627,71.65065198713388L-44.078468355208884,134.0600500562751L-43.70543957517093,71.50506171742572zM14.42494798583234,53.187325213316676L71.77247813707474,50.41557891215647L18.304152962823743,50.83213122797176zM-1.7980418639622062,61.3493020200145L71.77247813707474,50.41557891215647L2.343634635170593,59.5081216829272zM10.465227337493351,55.42207317494397L71.77247813707474,50.41557891215647L14.42494798583234,53.187325213316676zM2.343634635170593,59.5081216829272L71.77247813707474,50.41557891215647L6.434785679740395,57.53075346254562zM6.434785679740395,57.53075346254562L71.77247813707474,50.41557891215647L10.465227337493351,55.42207317494397z" style="fill:rgb(83,212,212)"/><path d="M88.37205263462756,30.965925716532436L97.12788897061637,42.215306242876885L90.71762717159841,27.62092354573778z" style="fill:rgb(224,100,205)"/><path d="M88.32040945193383,31.83310506066961L99.2351051528974,41.14891123111001L92.8555054813852,26.538719342291515zM90.56529942965646,51.38258481785417L82.3593159123104,38.792243692101486L88.92952496182185,53.31342816170558z" style="fill:rgb(216,90,210)"/><path d="M-43.70543957517093,71.50506171742572L-44.078468355208884,134.0600500562751L-39.629477286749456,71.19868693131093z" style="fill:rgb(83,212,212)"/><path d="M89.86191493313756,52.11359425812125L80.59764406078483,40.848858936646955L87.20002553938193,55.35489379049707z" style="fill:rgb(217,91,209)"/><path d="M88.92952496182185,53.31342816170558L80.59764406078483,40.848858936646955L87.20002553938193,55.35489379049707z" style="fill:rgb(216,90,210)"/><path d="M85.90192401338578,34.28838320748586L94.8282491251961,45.53963442441594L88.37205263462756,30.965925716532436z" style="fill:rgb(222,97,206)"/><path d="M87.20002553938193,55.35489379049707L77.76878865562196,44.078477496608905L84.42252163646128,58.56019139510203z" style="fill:rgb(215,88,211)"/><path d="M-39.629477286749456,71.19868693131093L-40.85339895658134,135.83270876110996L-35.50108188474572,70.73147555827386z" style="fill:rgb(83,212,212)"/><path d="M84.02547055974125,36.847127394282495L94.78214599648389,46.40510241825488L88.32040945193383,31.83310506066961z" style="fill:rgb(216,90,210)"/><path d="M83.30960740334326,37.584094015815865L92.40549433226087,48.84045259186188L85.90192401338578,34.28838320748586z" style="fill:rgb(220,94,208)"/><path d="M84.42252163646128,58.56019139510203L74.82601337278139,47.268768876094434L81.53229967815578,61.725349347418295z" style="fill:rgb(212,86,212)"/><path d="M-35.50108188474572,70.73147555827386L-37.16270090506656,137.02610042241898L-31.33006756639993,70.10383006189419z" style="fill:rgb(83,212,212)"/><path d="M82.3593159123104,38.792243692101486L90.56529942965646,51.38258481785417L84.02547055974125,36.847127394282495z" style="fill:rgb(216,90,210)"/><path d="M80.59764406078483,40.848858936646955L89.86191493313756,52.11359425812125L83.30960740334326,37.584094015815865z" style="fill:rgb(217,91,209)"/><path d="M81.53229967815578,61.725349347418295L71.77247813707474,50.41557891215647L78.53245230987542,64.84625494749415z" style="fill:rgb(210,83,214)"/><path d="M80.59764406078483,40.848858936646955L88.92952496182185,53.31342816170558L82.3593159123104,38.792243692101486z" style="fill:rgb(216,90,210)"/><path d="M-31.33006756639993,70.10383006189419L-33.10243442736186,137.60334368724676L-27.12645645564211,69.31662536820104z" style="fill:rgb(83,212,212)"/><path d="M77.76878865562196,44.078477496608905L87.20002553938193,55.35489379049707L80.59764406078483,40.848858936646955z" style="fill:rgb(215,88,211)"/><path d="M-27.12645645564211,69.31662536820104L-28.780549452152634,137.5445024737783L-22.900435717768552,68.37117886820843z" style="fill:rgb(83,212,212)"/><path d="M74.82601337278139,47.268768876094434L84.42252163646128,58.56019139510203L77.76878865562196,44.078477496608905z" style="fill:rgb(212,86,212)"/><path d="M-22.900435717768552,68.37117886820843L-19.82435354011523,135.52935599640895L-18.662329975534426,67.26929569380796zM-18.662329975534426,67.26929569380796L-15.435667902232103,133.62428611555126L-14.422552461929516,66.01322619882825z" style="fill:rgb(83,212,212)"/><path d="M71.77247813707474,50.41557891215647L81.53229967815578,61.725349347418295L74.82601337278139,47.268768876094434z" style="fill:rgb(210,83,214)"/><path d="M-5.979921570145178,63.049839561771975L-4.048528461834262,124.98401020161077L-1.7980418639622062,61.3493020200145zM-14.422552461929516,66.01322619882825L-11.268785390879911,131.1844174698475L-10.191584421247546,64.6056808992057zM-10.191584421247546,64.6056808992057L-7.43826606755063,128.2773345670343L-5.979921570145178,63.049839561771975z" style="fill:rgb(83,212,212)"/><path d="M-91.39108741505804,107.44765744216464L-35.454594178957855,147.54990215053238L-44.078468355208884,134.0600500562751z" style="fill:rgb(47,39,173)"/><path d="M-1.7980418639622062,61.3493020200145L-4.048528461834262,124.98401020161077L71.77247813707474,50.41557891215647zM-39.629477286749456,71.19868693131093L-44.078468355208884,134.0600500562751L-40.85339895658134,135.83270876110996z" style="fill:rgb(83,212,212)"/><path d="M-4.048528461834262,124.98401020161077L78.53245230987542,64.84625494749415L71.77247813707474,50.41557891215647z" style="fill:rgb(207,81,215)"/><path d="M-35.50108188474572,70.73147555827386L-40.85339895658134,135.83270876110996L-37.16270090506656,137.02610042241898zM-31.33006756639993,70.10383006189419L-37.16270090506656,137.02610042241898L-33.10243442736186,137.60334368724676zM-27.12645645564211,69.31662536820104L-33.10243442736186,137.60334368724676L-28.780549452152634,137.5445024737783z" style="fill:rgb(83,212,212)"/><path d="M78.53245230987542,64.84625494749415L-4.048528461834262,124.98401020161077L4.059383668662046,138.74299421226175z" style="fill:rgb(207,81,215)"/><path d="M-32.25230273730712,149.3357110858992L-44.078468355208884,134.0600500562751L-35.454594178957855,147.54990215053238z" style="fill:rgb(48,39,174)"/><path d="M-22.900435717768552,68.37117886820843L-28.780549452152634,137.5445024737783L-24.31382770367752,136.84766542572567zM-22.900435717768552,68.37117886820843L-24.31382770367752,136.84766542572567L-19.82435354011523,135.52935599640895zM-5.979921570145178,63.049839561771975L-7.43826606755063,128.2773345670343L-4.048528461834262,124.98401020161077zM-18.662329975534426,67.26929569380796L-19.82435354011523,135.52935599640895L-15.435667902232103,133.62428611555126zM-10.191584421247546,64.6056808992057L-11.268785390879911,131.1844174698475L-7.43826606755063,128.2773345670343zM-14.422552461929516,66.01322619882825L-15.435667902232103,133.62428611555126L-11.268785390879911,131.1844174698475z" style="fill:rgb(83,212,212)"/><path d="M-28.59410615690576,150.54685378278705L-40.85339895658134,135.83270876110996L-32.25230273730712,149.3357110858992z" style="fill:rgb(63,34,187)"/><path d="M-44.078468355208884,134.0600500562751L-32.25230273730712,149.3357110858992L-40.85339895658134,135.83270876110996z" style="fill:rgb(48,39,174)"/><path d="M-33.10243442736186,137.60334368724676L-28.59410615690576,150.54685378278705L-24.57524932392424,151.14609491595724z" style="fill:rgb(80,32,198)"/><path d="M-28.780549452152634,137.5445024737783L-24.57524932392424,151.14609491595724L-20.302576719823797,151.11300366899422z" style="fill:rgb(98,32,207)"/><path d="M-40.85339895658134,135.83270876110996L-28.59410615690576,150.54685378278705L-37.16270090506656,137.02610042241898z" style="fill:rgb(63,34,187)"/><path d="M-24.31382770367752,136.84766542572567L-20.302576719823797,151.11300366899422L-15.89149461972136,150.44503699173822z" style="fill:rgb(117,35,214)"/><path d="M4.059383668662046,138.74299421226175L-7.43826606755063,128.2773345670343L0.7312236705432129,142.00485396040898z" style="fill:rgb(206,80,215)"/><path d="M-28.59410615690576,150.54685378278705L-33.10243442736186,137.60334368724676L-37.16270090506656,137.02610042241898z" style="fill:rgb(80,32,198)"/><path d="M-19.82435354011523,135.52935599640895L-15.89149461972136,150.44503699173822L-11.462491271766133,149.15796180216856z" style="fill:rgb(137,40,219)"/><path d="M0.7312236705432129,142.00485396040898L-11.268785390879911,131.1844174698475L-3.035213528313545,144.87905798151203z" style="fill:rgb(191,67,220)"/><path d="M-11.268785390879911,131.1844174698475L-7.137343869435947,147.28561892679429L-3.035213528313545,144.87905798151203z" style="fill:rgb(174,56,222)"/><path d="M-15.435667902232103,133.62428611555126L-11.462491271766133,149.15796180216856L-7.137343869435947,147.28561892679429z" style="fill:rgb(156,47,222)"/><path d="M-24.57524932392424,151.14609491595724L-28.780549452152634,137.5445024737783L-33.10243442736186,137.60334368724676z" style="fill:rgb(98,32,207)"/><path d="M-20.302576719823797,151.11300366899422L-24.31382770367752,136.84766542572567L-28.780549452152634,137.5445024737783z" style="fill:rgb(117,35,214)"/><path d="M-7.43826606755063,128.2773345670343L4.059383668662046,138.74299421226175L-4.048528461834262,124.98401020161077z" style="fill:rgb(206,80,215)"/><path d="M-15.89149461972136,150.44503699173822L-19.82435354011523,135.52935599640895L-24.31382770367752,136.84766542572567z" style="fill:rgb(137,40,219)"/><path d="M-11.268785390879911,131.1844174698475L0.7312236705432129,142.00485396040898L-7.43826606755063,128.2773345670343z" style="fill:rgb(191,67,220)"/><path d="M-11.462491271766133,149.15796180216856L-15.435667902232103,133.62428611555126L-19.82435354011523,135.52935599640895z" style="fill:rgb(156,47,222)"/><path d="M-7.137343869435947,147.28561892679429L-11.268785390879911,131.1844174698475L-15.435667902232103,133.62428611555126z" style="fill:rgb(174,56,222)"/></svg>
